<svg xmlns="http://www.w3.org/2000/svg" viewBox="0 0 82.86 85.69"><defs><style>.cls-1{fill:#0086ff;}.cls-2{fill:#feb776;}.cls-3{fill:#c07e47;}.cls-4{fill:#fff;}.cls-5{fill:none;}.cls-6{fill:#c25f4d;}</style></defs><g id="Layer_2" data-name="Layer 2"><g id="Layer_1-2" data-name="Layer 1"><g id="chatbot"><path class="cls-1" d="M71.44,50.69a34.84,34.84,0,0,1-1.27,9.36c-.07.27-.15.53-.23.8s-.16.54-.25.8a34.56,34.56,0,0,1-2.91,6.5c-.13.23-.27.46-.41.69s-.28.45-.41.68A35.19,35.19,0,0,1,54.4,80.73c-.23.14-.46.28-.7.41s-.46.26-.7.39-.73.39-1.1.56-.78.39-1.18.56h0l-.91.4a35.13,35.13,0,0,1-8.88,2.36h0a35.26,35.26,0,0,1-3.58.27H35.58c-.62,0-1.24-.05-1.85-.09a35.8,35.8,0,0,1-6.92-1.24c-.66-.19-1.3-.39-1.94-.62h0a33.47,33.47,0,0,1-3.5-1.45,32.83,32.83,0,0,1-3.49-1.92L17.26,80c-.21-.14-.42-.27-.62-.42a35.13,35.13,0,0,1-8.24-7.9s0,0,0,0a34.7,34.7,0,0,1-3.75-6.3s0,0,0,0a34.3,34.3,0,0,1-2-5.58q-.11-.36-.18-.72c-.06-.23-.12-.46-.16-.7s-.15-.67-.21-1c-.18-.88-.31-1.78-.41-2.68a34,34,0,0,1-.22-3.92c0-.42,0-.83,0-1.24,0-.93.09-1.85.2-2.76a33.07,33.07,0,0,1,1-5.28c.13-.51.28-1,.44-1.5s.25-.75.38-1.11a.39.39,0,0,1,.05-.14c.06-.15.11-.3.17-.44a32.18,32.18,0,0,1,1.34-3.06c.18-.37.36-.73.56-1.08s.26-.49.4-.72H6a34.27,34.27,0,0,1,2.34-3.57c.31-.42.63-.83,1-1.23h0c.29-.35.58-.7.88-1a35.64,35.64,0,0,1,5.23-4.82c.43-.33.88-.65,1.33-1s.88-.59,1.33-.86a34.82,34.82,0,0,1,18.34-5.19,35.26,35.26,0,0,1,7.6.83,34.47,34.47,0,0,1,6.24,2A35.06,35.06,0,0,1,69.19,38.33h0A34.66,34.66,0,0,1,71.44,50.69Z"/><g id="그룹_1742" data-name="그룹 1742"><g id="마스크_그룹_82" data-name="마스크 그룹 82"><g id="그룹_1739" data-name="그룹 1739"><g id="그룹_1730" data-name="그룹 1730"><path class="cls-2" d="M8.39,71.63a34.7,34.7,0,0,1-3.75-6.3s0,0,0,0l.35.43.36.47c.23.32.47.66.7,1s.6,1,.89,1.49c.2.36.4.73.59,1.11l.29.59C8,70.8,8.2,71.21,8.39,71.63Z"/><path class="cls-2" d="M36.81,85.15h0c-.29.13-.59.26-.89.37h0l-.33.15c-.62,0-1.24-.05-1.85-.09a35.8,35.8,0,0,1-6.92-1.24l.38,0,.55-.06h0l.77-.1,1.57-.24a50.8,50.8,0,0,0,5.84-1.46c.24.76.46,1.43.65,2,0,.16.1.31.14.45S36.78,85.07,36.81,85.15Z"/><path class="cls-3" d="M35.94,82.46a50.8,50.8,0,0,1-5.84,1.46l-1.57.24-.8.09h0l-.53.07-.38,0c-.66-.19-1.3-.39-1.94-.62h0a33.47,33.47,0,0,1-3.5-1.45,32.83,32.83,0,0,1-3.49-1.92L17.26,80c-.21-.14-.42-.27-.62-.42a35.13,35.13,0,0,1-8.24-7.9s0,0,0,0c-.19-.42-.38-.83-.58-1.22l-.29-.59c-.19-.38-.39-.75-.59-1.11-.3-.53-.6-1-.89-1.49s-.47-.7-.7-1L5,65.73l-.34-.4s0,0,0,0a34.3,34.3,0,0,1-2-5.58q-.11-.36-.18-.72L3,58.81a6.17,6.17,0,0,1,.74-.19,7.67,7.67,0,0,1,.81-.15,9.8,9.8,0,0,1,2.48,0,8.87,8.87,0,0,1,5.29,2.39,20.93,20.93,0,0,1,3.1,3.67v0q.27.41.51.81l.17.28c.25.43.5.85.77,1.27s.35.55.53.82q1,1.52,2.13,2.94c.17.22.35.43.53.64s.35.41.53.61l.55.57A21.36,21.36,0,0,0,24.21,75a30.72,30.72,0,0,0,5.08,2.82l.08,0,1.15.47A37,37,0,0,0,35,79.83l.24.69Z"/><path d="M2.44,59c-.06-.23-.12-.46-.16-.7l.31-.11c.24-.08.49-.15.73-.21s.52-.12.78-.16a10.59,10.59,0,0,1,3-.1,9.81,9.81,0,0,1,5.71,2.58,20.48,20.48,0,0,1,2.86,3.31h0c.19.26.36.53.53.8s.34.55.5.83a0,0,0,0,1,0,0c.19.33.39.66.59,1s.33.52.51.78.34.53.51.79c.57.82,1.16,1.62,1.77,2.39.09.11.17.22.26.32s.35.42.54.63.35.39.54.58a19.88,19.88,0,0,0,3.16,2.69,28.62,28.62,0,0,0,4.74,2.66l.29.13a34.38,34.38,0,0,0,3.67,1.36c.62.21,1.25.39,1.88.55a.72.72,0,0,1,.53.88.74.74,0,0,1-.88.54h0a39.21,39.21,0,0,1-5.76-2,31.23,31.23,0,0,1-5.28-2.92,22.14,22.14,0,0,1-2.94-2.44c-.19-.18-.38-.37-.55-.56s-.37-.39-.54-.59-.53-.61-.78-.93a39.58,39.58,0,0,1-2.51-3.53c-.19-.28-.37-.56-.54-.85s-.19-.32-.28-.48L15.5,66l-.13-.22c-.19-.32-.38-.62-.59-.92a19.88,19.88,0,0,0-2.93-3.47A8.22,8.22,0,0,0,7,59.17a8.9,8.9,0,0,0-1.86,0,7.9,7.9,0,0,0-.85.11l-.78.18a6.78,6.78,0,0,0-.87.28Q2.51,59.36,2.44,59Z"/><path d="M37.55,85.15a.72.72,0,0,1-.23.53H35.58c-.62,0-1.24-.05-1.85-.09l.73-.26q.7-.26,1.38-.54l.6-.26.12-.06h0a.74.74,0,0,1,.91.42.93.93,0,0,1,0,.13S37.55,85.11,37.55,85.15Z"/><path class="cls-4" d="M53.7,81.14c-.23.14-.46.26-.7.39s-.73.39-1.1.56-.78.39-1.18.56h0l-.91.4a35.13,35.13,0,0,1-8.88,2.36h0a35.26,35.26,0,0,1-3.58.27H37l-1.09-.15h0l-1.45-.2q-3.36-.48-6.7-1.07h0c-.95-.16-1.9-.34-2.85-.52h0a33.47,33.47,0,0,1-3.5-1.45,32.83,32.83,0,0,1-3.49-1.92L17.26,80l3-7.35.3-.72.32-.75,1.41-3.4.31-.76.09-.21.45-.6,6-8,.48-.64.48-.63.56-.74.21-.28.22-.3a57.22,57.22,0,0,1,19.38,3.52l.64.24,0,.15v0l.08.52v0l.07.48.11.74.12.74,1.29,8.51L53,71h0l0,.23,0,.63.06.84.42,6.23.06.86.06.83Z"/><path id="패스_5928" data-name="패스 5928" d="M23.19,66.18l-.19-.1a.71.71,0,0,0-.83.23,1.14,1.14,0,0,0-.1.19l-.24.57-.31.74-1.13,2.71-.31.77-.31.74-3.13,7.52c.2.15.41.28.62.42l.61.39,3-7.18.3-.71.31-.74,1.69-4.08.25-.59s0,0,0,0a.83.83,0,0,0,0-.15A.72.72,0,0,0,23.19,66.18ZM37.54,85l-.81-.1-.89-.12c-1.92-.27-3.83-.55-5.74-.87-2.93-.49-5.84-1-8.74-1.64a33.47,33.47,0,0,0,3.5,1.45h0c.64.23,1.28.43,1.94.62a35.8,35.8,0,0,0,6.92,1.24c.61,0,1.23.07,1.85.09h1.74a35.26,35.26,0,0,0,3.58-.27C39.78,85.29,38.66,85.15,37.54,85Zm16.82-4.87-.06-.86-.06-.88-.36-5.31-.06-.84-.06-.85v-.21a.72.72,0,0,0-.75-.65h-.08a.69.69,0,0,0-.43.22.73.73,0,0,0-.19.52v.2l.06.84.48,7.11.06.84.06.83,0,.42c.24-.13.47-.25.7-.39s.47-.27.7-.41ZM51.47,58.65l-.1,0h0A57.89,57.89,0,0,0,31.2,54.83a.73.73,0,0,0-.74.71,1.23,1.23,0,0,0,0,.2.77.77,0,0,0,.28.4l.07,0a.67.67,0,0,0,.34.1A56.6,56.6,0,0,1,50.94,60a1,1,0,0,0,.23,0h.15a.73.73,0,0,0,.55-.44.23.23,0,0,0,0-.11A.71.71,0,0,0,51.47,58.65Z"/></g><g id="그룹_1738" data-name="그룹 1738"><g id="그룹_1748" data-name="그룹 1748"><path id="패스_6233" data-name="패스 6233" class="cls-4" d="M62.72,64.91a4.83,4.83,0,0,1,.67-.36c-2.14-1.91-5.36-3.44-9.67-4.62-.8-.21-1.63-.42-2.5-.61l1.05,12.14,4.8,2.43c0-.22.11-.44.16-.66q1.5-6,5.5-8.32Z"/><path class="cls-2" d="M66.37,68.84c-.14.23-.28.45-.41.68A35.19,35.19,0,0,1,54.4,80.73c-.23.14-.46.28-.7.41s-.46.26-.7.39-.73.39-1.1.56-.78.39-1.18.56a5.45,5.45,0,0,1,2-2.27l.15-.1c.24-.15.47-.31.7-.48s.47-.34.69-.52a19.26,19.26,0,0,0,2.26-2.07c1.21-1.3,1.63-2.34,1.27-3.11a3.74,3.74,0,0,0-.6-.87c.13-.5.26-1,.41-1.44a14.8,14.8,0,0,1,1.71-3.62l.35-.51a11.88,11.88,0,0,1,.77-.93,10,10,0,0,1,2.25-1.82A17.92,17.92,0,0,1,66.37,68.84Z"/><path id="패스_6235" data-name="패스 6235" d="M64,65a.73.73,0,0,0-.08-1,14.6,14.6,0,0,0-2-1.5c-.38-.24-.79-.47-1.22-.7s-.95-.49-1.46-.72a36.74,36.74,0,0,0-5.28-1.85c-.8-.22-1.66-.43-2.54-.62h0a.7.7,0,0,0-.79.47.09.09,0,0,0,0,.06.72.72,0,0,0,.52.88l.11,0h0l.07,0h0c.76.17,1.5.36,2.2.55.23,0,.46.11.68.18a23.41,23.41,0,0,1,2.83.93c.61.23,1.22.5,1.81.79a24.73,24.73,0,0,1,3.26,1.9c-2.65,1.66-4.5,4.48-5.52,8.4L53.76,71.4,53,71h0l-.39-.2-.11,0a.67.67,0,0,0-.28,0,.7.7,0,0,0-.59.39.73.73,0,0,0,.32,1l.43.22.76.38.75.38,2.86,1.45a.69.69,0,0,0,.49.06A3.48,3.48,0,0,1,56,76.71a17.82,17.82,0,0,1-1.79,1.69q-.35.28-.69.54a8.17,8.17,0,0,1-.7.5l-.49.34a6.12,6.12,0,0,0-2.5,3,2.61,2.61,0,0,0-.06.27l.91-.4h0c.4-.17.79-.36,1.18-.56a4.54,4.54,0,0,1,1.07-1l.19-.13.51-.35c.24-.15.46-.32.69-.49a20.43,20.43,0,0,0,2.73-2.45c1.45-1.56,1.91-2.84,1.4-3.91A3.8,3.8,0,0,0,58,73c.9-3.35,2.46-5.79,4.64-7.25A17.21,17.21,0,0,1,66,69.52c.13-.23.27-.45.41-.68s.28-.46.41-.69A18,18,0,0,0,64,65Z"/><path id="패스_6236" data-name="패스 6236" class="cls-4" d="M30.51,56.59l.56-.72a70.24,70.24,0,0,0-13.52-2l.13,1.2a34.64,34.64,0,0,1-1.9,10.86c-.08.25-.16.5-.26.75a20.66,20.66,0,0,0,8.14.21l.73-1.41a48.87,48.87,0,0,1,2.89-4.53c.71-1,1.78-2.42,3.23-4.3Z"/><path id="패스_6237" data-name="패스 6237" class="cls-4" d="M13.66,27.82l.15.05v-.05Zm67.88,17.1a10.24,10.24,0,0,0-.68-1.46,8.54,8.54,0,0,0-.9-1.32c-.23-.28-.47-.54-.72-.79a9.65,9.65,0,0,0-3.6-2.24l-1.49-.3-.41-.08c-1.18-.09-2.36-.19-3.53-.3l-1-.09-2.37-.23q-3.52-.34-7-.76l-2.15-.26-2.12-.28h0c-1.26-.16-2.52-.34-3.76-.53h0c-1.31-.17-2.6-.37-3.89-.59l-.7-.11-.64-.1-.12,0c-1.4-.22-2.79-.47-4.19-.72l-.13,0c-.25-.05-.51-.09-.76-.15s-.49-.08-.73-.13c-1.37-.25-2.73-.51-4.09-.8-1.07-.2-2.14-.43-3.2-.67q-9.48-2-18.76-4.87l-.69-.21h-.06l-.15-.05h0a.32.32,0,0,0-.27,0h0a11.94,11.94,0,0,0-4,.72h0a8.56,8.56,0,0,0-3.08,1.93c-.13.12-.25.25-.37.38s-.23.26-.34.4-.37.47-.55.71-.33.48-.48.74-.19.34-.28.52a8.71,8.71,0,0,0-.59,1.37v0a10.26,10.26,0,0,0-.45,1.71A10.58,10.58,0,0,0,3,37.93a9.23,9.23,0,0,0,0,1.39l.06.59,0,.15a11.64,11.64,0,0,0,3.73,7,29.75,29.75,0,0,0,4.72,3.65l.9.53c.37.22.75.43,1.14.62h0l.72.36c1.16.57,2.34,1.1,3.53,1.59h0c1.35.55,2.69,1,4.08,1.51.8.25,1.59.49,2.37.71,1.77.53,3.54,1,5.33,1.44h.08c1.06.27,2.13.5,3.2.72,2.26.52,4.52,1,6.8,1.39h0l.32,0c2.06.37,4.13.68,6.21,1,1.67.26,3.34.47,5,.64h.12c1.23.13,2.46.23,3.69.31l1.84.13.62,0c.44,0,.88,0,1.33,0h0q.82,0,1.65,0c1.76,0,3.51-.11,5.26-.29a29.73,29.73,0,0,0,8.83-2.23,11.77,11.77,0,0,0,6.27-6A10.79,10.79,0,0,0,81.54,44.92Z"/><path id="패스_6238" data-name="패스 6238" class="cls-3" d="M42.77,6.36q1.77,5.8,1.06,14.93a118.84,118.84,0,0,1-1.6,13.43h0c1.44.26,2.88.51,4.31.74a109.7,109.7,0,0,1,3.8-17.1q2.17-6.81,5-9.76A45.81,45.81,0,0,0,42.77,6.36Z"/><path id="패스_6239" data-name="패스 6239" class="cls-2" d="M44,15.05c0-.43,0-.85-.05-1.27s0-.58-.06-.87l0-.5-.09-.86,0-.25q0-.46-.12-.9c0-.1,0-.2,0-.3s0,0,0-.06h0s0,0,0-.07c0-.2-.06-.38-.1-.57a5,5,0,0,0-.11-.56c0-.21-.08-.4-.12-.59s0-.07,0-.1,0-.12,0-.18l0-.12c0-.22-.11-.44-.16-.65l0-.1-.21-.73q-1.42-4.3-3.64-5.22A4.43,4.43,0,0,0,37.71.75a1,1,0,0,0-.24,0,3.66,3.66,0,0,0-1,.05,3.83,3.83,0,0,0-.74.19,4.56,4.56,0,0,0-.84.39c-1.33.78-2,2.52-2.14,5.24A33.75,33.75,0,0,0,27,9.9a30.42,30.42,0,0,0-5,4.43,42.4,42.4,0,0,0-4.29,5.78c-.32.54-.63,1.08-.93,1.63a49.89,49.89,0,0,0-2.35,4.82c-.16.41-.34.83-.53,1.26h-.07v.05h.06l.69.21Q23.85,30.91,33.32,33c1.06.24,2.13.47,3.2.67,1.36.29,2.72.55,4.09.8.24,0,.49.1.73.13s.51.1.76.15l.13,0h0l0-.19c.05-.26.09-.51.13-.77h0c0-.25.09-.51.13-.76a.77.77,0,0,0,0-.15q.2-1.17.36-2.34c0-.27.07-.53.11-.79.11-.84.21-1.67.3-2.51a.19.19,0,0,0,0-.08c0-.3.07-.59.1-.89l.15-1.57c0-.31.06-.62.08-.92.07-.82.13-1.63.18-2.45s.11-1.65.15-2.45c0-.37,0-.73,0-1.09s0-.52,0-.78a2.62,2.62,0,0,0,0-.28v-.17C44,16,44,15.54,44,15.05ZM75.37,39l-.28-.1-.22-.08v-.16c0-.42,0-.82-.05-1.2A50.91,50.91,0,0,0,74,30.23a38.25,38.25,0,0,0-2-6.91c-.1-.26-.2-.52-.31-.78-.22-.51-.45-1-.69-1.52s-.51-1-.78-1.47c-.41-.73-.86-1.43-1.34-2.12-.31-.46-.64-.91-1-1.35a35.17,35.17,0,0,0-3.27-3.74q1.27-3.71,0-5.6a4.27,4.27,0,0,0-3.77-2c-1.6,0-3.44,1.27-5.5,3.84-.18.19-.35.39-.52.6l-.17.2-.22.29a2.32,2.32,0,0,0-.22.3c-.15.2-.29.41-.43.64l-.29.46c-.19.31-.38.64-.56,1l-.27.52c-.18.34-.35.7-.52,1.07s-.44,1-.65,1.54c-.1.24-.2.49-.29.74-.19.51-.38,1-.56,1.58-.1.27-.19.55-.28.83a1.21,1.21,0,0,0,0,.18q-.66,2.16-1.23,4.35c-.09.35-.18.7-.26,1.05s-.23.89-.33,1.34-.18.74-.25,1.11c-.14.61-.28,1.21-.4,1.82-.09.39-.17.8-.25,1.21,0,.08,0,.15-.05.23v0s0,0,0,0l0,.15c0,.08,0,.16,0,.24-.11.56-.21,1.12-.31,1.69l-.06.35,0,.21-.24,1.49h0l0,.22a2.08,2.08,0,0,0,0,.23.59.59,0,0,0,0,.13l0,.2h0c-.05.28-.09.54-.13.82l.64.1.7.11c1.29.21,2.58.41,3.89.6h0l1.31.19,2.45.34h0l2.12.28,2.15.26q3.45.42,7,.76l2.37.23,1,.09c1.17.11,2.35.21,3.53.3l.41.08,1.49.3A1.17,1.17,0,0,0,75.37,39Z"/><path id="패스_6240" data-name="패스 6240" class="cls-5" d="M12,51.78a30,30,0,0,1-5.56-4.16,12.44,12.44,0,0,1-3.64-6,1.14,1.14,0,0,1-.06-.25A11,11,0,0,1,2.42,40c0-.21,0-.42-.07-.63a10.74,10.74,0,0,1-.05-1.6A11.6,11.6,0,0,1,5,30.8a9.63,9.63,0,0,1,5.25-3.29,14.22,14.22,0,0,1,3-.4l.19,0q.18-.39.33-.78c.51-1.22,1.08-2.42,1.69-3.6.51-1,1.06-2,1.64-3a43.1,43.1,0,0,1,4.36-5.89,31.44,31.44,0,0,1,5.1-4.54,34.71,34.71,0,0,1,5.51-3.18c.18-2.71,1-4.52,2.48-5.38A5.25,5.25,0,0,1,39.4.47c1.61.66,2.88,2.37,3.89,5.19a47.62,47.62,0,0,1,11.77,2.1C57.15,5.26,59,4,60.78,4h0a5,5,0,0,1,4.38,2.29c.95,1.38,1,3.34.26,5.81.37.38.73.76,1.08,1.15.7.79,1.37,1.6,2,2.45.32.42.62.85.92,1.28a27.74,27.74,0,0,1,3.2,6,39,39,0,0,1,2,7,51,51,0,0,1,.85,7.29c0,.28,0,.58,0,.89l.06,0a1.91,1.91,0,0,1,.32.16,10.39,10.39,0,0,1,6.25,6.23,11.53,11.53,0,0,1-.56,9A12.56,12.56,0,0,1,75,60a29.86,29.86,0,0,1-5.31,1.7,29.24,29.24,0,0,1-3.73.59c-1.36.14-2.72.22-4.09.26-.46,0-.93,0-1.39,0H58.85c-.41,0-.81,0-1.22,0-.85,0-1.68-.1-2.48-.16-1.17-.07-2.34-.17-3.52-.3h-.18c-1.74-.17-3.48-.4-5.19-.66-2.07-.27-4.17-.59-6.23-1l-.36-.06c-2.28-.41-4.58-.88-6.83-1.39-1.17-.24-2.35-.5-3.53-.79l-.07,0c-1.69-.41-3.39-.88-5.06-1.38-.78-.22-1.59-.46-2.38-.71-1.15-.38-2.29-.8-3.41-1.25-.26-.09-.52-.2-.77-.31-1.2-.49-2.39-1-3.56-1.59l-.86-.44c-.42-.22-.84-.45-1.25-.69m1.39-23.22a10.46,10.46,0,0,0-5,1.22,7.68,7.68,0,0,0-2.28,1.94,9.32,9.32,0,0,0-1.2,1.81A7.78,7.78,0,0,0,4.28,35a9.44,9.44,0,0,0-.55,3.12v.14a9.07,9.07,0,0,0,.06,1,11.09,11.09,0,0,0,3.59,7.3,28.58,28.58,0,0,0,4.11,3.24l.77.48c.28.17.56.34.85.5.52.29,1,.56,1.58.82A59.65,59.65,0,0,0,20.4,54h.05c.61.22,1.18.43,1.79.63.77.25,1.56.49,2.34.7,1.86.56,3.74,1.07,5.62,1.51l.08,0c.95.23,1.91.44,2.86.64,2.25.51,4.53,1,6.79,1.38l.35.06c2,.36,4.12.68,6.18,1,1.61.25,3.24.46,4.87.63h.07c.94.1,1.87.19,2.81.25l1,.08,1.8.11h0l.62,0c.5,0,1,0,1.5,0a59.08,59.08,0,0,0,6.65-.29,27.6,27.6,0,0,0,4.33-.74,28.33,28.33,0,0,0,4.28-1.44A11.12,11.12,0,0,0,80.35,53a10,10,0,0,0,.5-7.86,8.88,8.88,0,0,0-5.47-5.37l-.08,0-.06,0-.14-.08h0l-.18-.07-.08,0-.15-.05a.72.72,0,0,1-.51-.67h0v-.17c0-.4,0-.79,0-1.16a50.13,50.13,0,0,0-.83-7.11,37.21,37.21,0,0,0-2-6.77,26.09,26.09,0,0,0-3-5.74,34.21,34.21,0,0,0-4.15-5,.7.7,0,0,1-.17-.75c.76-2.23.78-3.89,0-5A3.57,3.57,0,0,0,60.8,5.49h0c-1.36,0-3,1.2-4.91,3.56a.75.75,0,0,1-.69.28l-.15,0-.25-.08h0A45.17,45.17,0,0,0,43,7.09h-.24a.71.71,0,0,1-.65-.5c-.88-2.64-2-4.25-3.23-4.77A3.81,3.81,0,0,0,35.26,2c-1.08.63-1.68,2.2-1.77,4.63a.73.73,0,0,1-.43.64,34.09,34.09,0,0,0-5.67,3.22,29.82,29.82,0,0,0-4.86,4.33,41.64,41.64,0,0,0-4.21,5.67c-.08.13-.15.26-.22.39a49.66,49.66,0,0,0-3,6c-.16.4-.34.83-.53,1.25,0,0,0,0,0,0a.87.87,0,0,1-1,.44l0,0-.17,0"/><path id="패스_6241" data-name="패스 6241" d="M47.18,35.58c.07-.36-.17-.72-.7-1.08a5.86,5.86,0,0,0-4.12-.74c-.61.15-1,.41-1,.77s.17.72.69,1.07a5.34,5.34,0,0,0,2,.75,5.22,5.22,0,0,0,2.12,0c.62-.15,1-.4,1-.76Z"/><path id="패스_6242" data-name="패스 6242" d="M46.87,33.9l-.08,0h0A5.5,5.5,0,0,0,44.61,33a5.88,5.88,0,0,0-2.09,0l-.35.06c-1.14.28-1.48.89-1.56,1.35v0c-.08.45,0,1.11,1,1.77a6,6,0,0,0,2.28.86,7.33,7.33,0,0,0,1.24.11h0A5.15,5.15,0,0,0,46.3,37c1.16-.28,1.5-.88,1.58-1.34v0h0C48,35.21,47.83,34.55,46.87,33.9Zm-2.73,1.73A4.49,4.49,0,0,1,42.42,35a1.06,1.06,0,0,1-.32-.28l-.05-.06.21-.12.25-.07a4.75,4.75,0,0,1,1.84,0,4.55,4.55,0,0,1,1.71.64,1.24,1.24,0,0,1,.38.34h0a1.3,1.3,0,0,1-.46.18A4.65,4.65,0,0,1,44.14,35.63Z"/><path id="패스_6243" data-name="패스 6243" class="cls-4" d="M40.58,28.13a4.94,4.94,0,0,0-1.13-3.57A4.07,4.07,0,0,0,36.32,23,4.29,4.29,0,0,0,33,24.31a5.13,5.13,0,0,0-1.54,3.48,5,5,0,0,0,1.14,3.57,4.15,4.15,0,0,0,3.14,1.58,4.28,4.28,0,0,0,3.3-1.34,5.16,5.16,0,0,0,1.53-3.47Z"/><path id="패스_6244" data-name="패스 6244" d="M40,24.1a4.8,4.8,0,0,0-3.67-1.86,5,5,0,0,0-3.84,1.56,5.84,5.84,0,0,0-1.76,3.95A5.6,5.6,0,0,0,32,31.83,4.59,4.59,0,0,0,33.32,33a4.74,4.74,0,0,0,2.39.71h.21a4,4,0,0,0,.6,0,4.92,4.92,0,0,0,3-1.51,5.89,5.89,0,0,0,1.74-3.95A5.68,5.68,0,0,0,40,24.1Zm-3.88-.41h.15A3.35,3.35,0,0,1,38.88,25a4.25,4.25,0,0,1,1,2.7c0,.09,0,.18,0,.27v0s0,.05,0,.07a4.47,4.47,0,0,1-1.31,3,3.58,3.58,0,0,1-2.77,1.12,3.45,3.45,0,0,1-1.45-.36,2.71,2.71,0,0,1-.37-.21l0,0a3.4,3.4,0,0,1-.76-.71,4.18,4.18,0,0,1-1-3.07,4.38,4.38,0,0,1,1.33-3A3.54,3.54,0,0,1,36.12,23.69Z"/><path id="패스_6245" data-name="패스 6245" d="M38.37,31.93a4,4,0,0,0,1-5.26,3.35,3.35,0,0,0-4.9-.88,4,4,0,0,0-.94,5.26,3.32,3.32,0,0,0,4.89.88Z"/><path id="패스_6246" data-name="패스 6246" class="cls-4" d="M50.14,29.85a5,5,0,0,1,2.3-3,4.11,4.11,0,0,1,3.5-.4,4.31,4.31,0,0,1,2.63,2.42,5.15,5.15,0,0,1,.23,3.8,4.91,4.91,0,0,1-2.31,2.95,4.18,4.18,0,0,1-3.5.39,4.31,4.31,0,0,1-2.63-2.4,5.18,5.18,0,0,1-.22-3.79Z"/><path id="패스_6247" data-name="패스 6247" d="M59.23,28.6a5,5,0,0,0-3.06-2.81,4.79,4.79,0,0,0-4.09.46,5.5,5.5,0,0,0-1,.74,3.83,3.83,0,0,0-.29.28,5.83,5.83,0,0,0-1.34,2.36,5.92,5.92,0,0,0,.25,4.3,5.08,5.08,0,0,0,2.07,2.34h0a5,5,0,0,0,2.53.7,4.62,4.62,0,0,0,1.23-.17h0a4.79,4.79,0,0,0,1.26-.52,5.66,5.66,0,0,0,2.65-3.37A5.85,5.85,0,0,0,59.23,28.6Zm-2.75,6.19c-.11.08-.23.15-.35.22a3,3,0,0,1-.73.33,3.36,3.36,0,0,1-2.17,0,3.54,3.54,0,0,1-2.2-2,4.4,4.4,0,0,1-.23-3.13h0a.74.74,0,0,1,0-.14h0a4.24,4.24,0,0,1,2-2.54,3.34,3.34,0,0,1,2.9-.34,3.59,3.59,0,0,1,2.2,2,4.39,4.39,0,0,1,.2,3.28,4.23,4.23,0,0,1-1,1.77A3.59,3.59,0,0,1,56.48,34.79Z"/><path id="패스_6248" data-name="패스 6248" d="M53.16,35.72a3.28,3.28,0,0,0,2.65-.65,4,4,0,0,0,.94-5.26,3.33,3.33,0,0,0-4.59-1.09,1.61,1.61,0,0,0-.3.21,4,4,0,0,0-1,5.26,3.31,3.31,0,0,0,2.25,1.53Z"/><path id="패스_6249" data-name="패스 6249" class="cls-4" d="M36,27.71a1.67,1.67,0,0,0,.18-.28.7.7,0,0,0,0-.53.64.64,0,0,0-.24-.32.35.35,0,0,0-.32-.12.53.53,0,0,0-.37,0,1.05,1.05,0,0,0-.37.25.62.62,0,0,0-.14.43.77.77,0,0,0,.1.42,1.22,1.22,0,0,0,.33.31.67.67,0,0,0,.44,0,.68.68,0,0,0,.38-.16Z"/><path id="패스_6250" data-name="패스 6250" class="cls-4" d="M55.69,30.14a.37.37,0,0,0-.33-.12A.45.45,0,0,0,55,30a.91.91,0,0,0-.37.24.71.71,0,0,0-.15.44.86.86,0,0,0,.1.41,1.12,1.12,0,0,0,.33.32.61.61,0,0,0,.42,0,.51.51,0,0,0,.39-.16l.2-.28a.75.75,0,0,0,0-.53.6.6,0,0,0-.21-.31Z"/><path id="패스_6251" data-name="패스 6251" class="cls-6" d="M51.23,41.81v-.06a1.92,1.92,0,0,0-1.39-2,28.45,28.45,0,0,0-4.48-1l-1.53-.26-.28,0L42,38.21a26.93,26.93,0,0,0-4.55-.63,1.9,1.9,0,0,0-2,1.34.08.08,0,0,0,0,0,9.47,9.47,0,0,0-.08,4.46,2.68,2.68,0,0,0,.07.27,7.77,7.77,0,0,0,2.23,3.8,7.57,7.57,0,0,0,3.66,1.91l.22,0,.15,0,.13,0,.22,0a7.48,7.48,0,0,0,4.1-.52,7.73,7.73,0,0,0,3.41-2.78,1.88,1.88,0,0,0,.16-.23,9.42,9.42,0,0,0,1.48-4.2Z"/><path id="패스_6252" data-name="패스 6252" class="cls-4" d="M46.16,41.2A9.05,9.05,0,0,0,46.45,40l0-.23-5.84-1a7.33,7.33,0,0,0,0,2.8,1.74,1.74,0,0,0,1.24,1,5.49,5.49,0,0,0,2.75.29,2.15,2.15,0,0,0,1.51-1.6Z"/><path id="패스_6253" data-name="패스 6253" d="M44,43.61a8.32,8.32,0,0,1-2.26-.4A2.42,2.42,0,0,1,40,41.72a7.55,7.55,0,0,1-.06-3.14.72.72,0,0,1,1.44.12v0a6.32,6.32,0,0,0,0,2.49c.06.16.21.41.76.57a4.64,4.64,0,0,0,2.36.28c.3-.07.73-.27,1-1.11a10.7,10.7,0,0,0,.26-1.12q0-.16,0-.27a.73.73,0,1,1,1.43.26h0s0,.1,0,.15a.07.07,0,0,1,0,0,12,12,0,0,1-.31,1.35,2.85,2.85,0,0,1-2,2.1,3.26,3.26,0,0,1-.88.1Z"/><path id="패스_6254" data-name="패스 6254" d="M51.42,40.16a3.79,3.79,0,0,0-2.91-1.24,61.85,61.85,0,0,1-9.26-1.61c-3.11-1-4.12.61-4.44,1.62,0,0,0,0,0,0a8.49,8.49,0,0,0-.24,1.22,8.61,8.61,0,0,0-.08,1.24,9.92,9.92,0,0,0,.48,3A8.11,8.11,0,0,0,38.6,49a8.64,8.64,0,0,0,4.56,1.29h0a10.15,10.15,0,0,0,1.1-.07,8.07,8.07,0,0,0,5.15-2.66,9.84,9.84,0,0,0,2.43-4.74A3.19,3.19,0,0,0,51.42,40.16ZM36.55,44.62a5.71,5.71,0,0,1-.21-.58h0a8.28,8.28,0,0,1-.15-4.68c.13-.41.46-1.32,2.65-.65h0l1,.24.71.17.71.15q2.19.46,4.41.78l.72.09q.36.06.72.09l1.26.14a2.65,2.65,0,0,1,1.87.67,1.88,1.88,0,0,1,.15,1.52,8.36,8.36,0,0,1-2.08,4.06,6.62,6.62,0,0,1-4.25,2.2,7.21,7.21,0,0,1-4.73-1,6.65,6.65,0,0,1-1.45-1.13,6.1,6.1,0,0,1-.41-.46,5.74,5.74,0,0,1-.36-.5A7,7,0,0,1,36.55,44.62Z"/><path id="패스_6255" data-name="패스 6255" class="cls-2" d="M13.2,52.47a4.17,4.17,0,0,1-.69-1.21,3.92,3.92,0,0,1-.25-1,6.82,6.82,0,0,1,.19-2.72c1.64-.35,3-.67,4-.94s1.48-.87,1.26-1.82a1.46,1.46,0,0,0-.4-.73,4.12,4.12,0,0,0-1.59-1,11.64,11.64,0,0,0-1.83-.54c.1-.15.2-.3.31-.44.44-.68.87-1.32,1.29-1.93A21.74,21.74,0,0,0,16.82,38a3.18,3.18,0,0,0,.4-1.51,2.91,2.91,0,0,0,0-.31,1.6,1.6,0,0,0-1-1.06A1.81,1.81,0,0,0,15,35l-.26.09a4,4,0,0,0-1.23.88c-.33.38-.91,1.12-1.74,2.24a15.18,15.18,0,0,0,.62-3.14,2.7,2.7,0,0,0-.32-1.5,1.88,1.88,0,0,0-.89-.76A1.53,1.53,0,0,0,9.9,33a2.73,2.73,0,0,0-1.36,1.4,8,8,0,0,0-.76,2.14,4.26,4.26,0,0,0-.13.62c-.11-.39-.17-.63-.19-.71s-.12-.39-.28-.93l0-.12a1.79,1.79,0,0,0-.85-1.19h0a1.26,1.26,0,0,0-.66-.1A1.4,1.4,0,0,0,5,34.3a3.65,3.65,0,0,0-.7.66,3.4,3.4,0,0,0-.67,1.24c-.22.57-.42,1.15-.59,1.73s-.43,1.38-.6,2.09c-.09.29-.16.59-.23.89A43.67,43.67,0,0,0,.9,46.81a15.9,15.9,0,0,0,.76,7.8c.14.41.3.81.48,1.21A14.08,14.08,0,0,0,3.32,58c.14.22.29.43.44.64s.33.43.51.64a14.61,14.61,0,0,0,3.54,3.15,29.08,29.08,0,0,0,7.56,3.35l.41.12c.06-.18.12-.36.17-.54s.2-.61.29-.92.19-.64.27-1,.09-.34.13-.5,0,0,0,0v0s0,0,0-.08,0-.11,0-.16,0-.2.07-.3,0,0,0-.08,0-.06,0-.09,0,0,0,0c0-.21.09-.43.13-.63s.13-.65.19-1,.15-.91.21-1.37c.12-.91.21-1.83.26-2.75,0-.47,0-.93.05-1.4A8.24,8.24,0,0,1,13.2,52.47Z"/><path id="패스_6256" data-name="패스 6256" d="M13.2,52.47a4.17,4.17,0,0,1-.69-1.21l-.9-.53A5.35,5.35,0,0,0,12,51.78c.67,1.52,2.15,2.91,5,3.79a35.07,35.07,0,0,1-.74,6L16,62.58c-.08.35-.18.69-.27,1,.19.26.36.53.53.8q.15-.48.27-1c0-.17.09-.34.13-.5s0,0,0,0v0s0,0,0-.08,0-.11,0-.16,0-.2.07-.3,0,0,0-.08,0-.06,0-.09,0,0,0,0c0-.21.09-.43.13-.63s.13-.65.19-1,.15-.91.21-1.37c.12-.91.21-1.83.26-2.75,0-.47,0-.93.05-1.4A8.24,8.24,0,0,1,13.2,52.47Zm0,0a4.17,4.17,0,0,1-.69-1.21l-.9-.53A5.35,5.35,0,0,0,12,51.78c.67,1.52,2.15,2.91,5,3.79a35.07,35.07,0,0,1-.74,6L16,62.58c-.08.35-.18.69-.27,1,.19.26.36.53.53.8q.15-.48.27-1c0-.17.09-.34.13-.5s0,0,0,0v0s0,0,0-.08,0-.11,0-.16,0-.2.07-.3,0,0,0-.08,0-.06,0-.09,0,0,0,0c0-.21.09-.43.13-.63s.13-.65.19-1,.15-.91.21-1.37c.12-.91.21-1.83.26-2.75,0-.47,0-.93.05-1.4A8.24,8.24,0,0,1,13.2,52.47Zm0,0a4.17,4.17,0,0,1-.69-1.21l-.9-.53A5.35,5.35,0,0,0,12,51.78c.67,1.52,2.15,2.91,5,3.79a35.07,35.07,0,0,1-.74,6L16,62.58c-.08.35-.18.69-.27,1,.19.26.36.53.53.8q.15-.48.27-1c0-.17.09-.34.13-.5s0,0,0,0v0s0,0,0-.08,0-.11,0-.16,0-.2.07-.3,0,0,0-.08,0-.06,0-.09,0,0,0,0c0-.21.09-.43.13-.63s.13-.65.19-1,.15-.91.21-1.37c.12-.91.21-1.83.26-2.75,0-.47,0-.93.05-1.4A8.24,8.24,0,0,1,13.2,52.47Zm0,0a4.17,4.17,0,0,1-.69-1.21l-.9-.53A5.35,5.35,0,0,0,12,51.78c.67,1.52,2.15,2.91,5,3.79a35.07,35.07,0,0,1-.74,6L16,62.58c-.08.35-.18.69-.27,1,.19.26.36.53.53.8q.15-.48.27-1c0-.17.09-.34.13-.5s0,0,0,0v0s0,0,0-.08,0-.11,0-.16,0-.2.07-.3,0,0,0-.08,0-.06,0-.09,0,0,0,0c0-.21.09-.43.13-.63s.13-.65.19-1,.15-.91.21-1.37c.12-.91.21-1.83.26-2.75,0-.47,0-.93.05-1.4A8.24,8.24,0,0,1,13.2,52.47Zm0,0a4.17,4.17,0,0,1-.69-1.21l-.9-.53A5.35,5.35,0,0,0,12,51.78c.67,1.52,2.15,2.91,5,3.79a35.07,35.07,0,0,1-.74,6L16,62.58c-.08.35-.18.69-.27,1,.19.26.36.53.53.8q.15-.48.27-1c0-.17.09-.34.13-.5s0,0,0,0v0s0,0,0-.08,0-.11,0-.16,0-.2.07-.3,0,0,0-.08,0-.06,0-.09,0,0,0,0c0-.21.09-.43.13-.63s.13-.65.19-1,.15-.91.21-1.37c.12-.91.21-1.83.26-2.75,0-.47,0-.93.05-1.4A8.24,8.24,0,0,1,13.2,52.47ZM24.38,66.74A.69.69,0,0,0,24,66.2a.72.72,0,0,0-.44-.07l-.36.05c-.34.06-.68.1-1,.13a20.5,20.5,0,0,1-2.07.11,21.2,21.2,0,0,1-2.76-.18l-.87-.14c.1-.28.19-.56.27-.85A35.62,35.62,0,0,0,18.41,55v0s0,0,0-.06v-.12l0-.23c.56,0,1.14.07,1.74.13l-2.54-.78-.73-.22a.6.6,0,0,0,0,.19V54a6.37,6.37,0,0,1-3.18-2.11h0a3.76,3.76,0,0,1-.54-1.1,5.25,5.25,0,0,1,0-2.6c1.45-.32,2.66-.6,3.6-.85A2.1,2.1,0,0,0,18.53,45a2.45,2.45,0,0,0-.08-.37,2.14,2.14,0,0,0-.57-1.08A4.88,4.88,0,0,0,16,42.44a9,9,0,0,0-.92-.31c.35-.53.69-1,1-1.53a25.32,25.32,0,0,0,1.35-2.31A3.89,3.89,0,0,0,18,36.43a3.47,3.47,0,0,0-.06-.45s0,0,0,0a2.32,2.32,0,0,0-1.39-1.52,2.53,2.53,0,0,0-1.65-.08h0l-.25.09-.06,0a4.46,4.46,0,0,0-1.35.93c0-.1,0-.19,0-.28a3.33,3.33,0,0,0-.43-1.9,2.64,2.64,0,0,0-1.22-1,2.24,2.24,0,0,0-1.89.13A3.41,3.41,0,0,0,7.91,34c-.1.19-.19.39-.28.59h0A2.16,2.16,0,0,0,7.21,34a2.1,2.1,0,0,0-.61-.45,1.14,1.14,0,0,0-.26-.09l-.16,0-.15,0a1.74,1.74,0,0,0-.51,0l-.21,0a1.87,1.87,0,0,0-.4.13h0a1.41,1.41,0,0,0-.24.13,4.34,4.34,0,0,0-1,.94v0a4.25,4.25,0,0,0-.68,1.3c-.23.62-.45,1.24-.64,1.87-.31,1-.58,1.93-.81,2.92a45.68,45.68,0,0,0-1.3,6,16.75,16.75,0,0,0,1.29,9.42,12.81,12.81,0,0,0,.59,1.17,10,10,0,0,0,.52.9c.14.21.27.42.43.62a6.43,6.43,0,0,0,.47.63A15.32,15.32,0,0,0,7.43,63a29.16,29.16,0,0,0,7.41,3.36h0a.71.71,0,0,0,.43.93l.07,0c.37.09.75.17,1.13.24s.63.11.94.14.63.08.94.1c.53,0,1.05.06,1.58.06s1,0,1.58-.06c.27,0,.55,0,.82-.06s.55-.06.82-.1l.61-.08a.74.74,0,0,0,.62-.82h0ZM15.29,65l-.51-.16a28,28,0,0,1-6.57-3,14.79,14.79,0,0,1-3.09-2.65c-.19-.22-.38-.45-.55-.68a7.11,7.11,0,0,1-.47-.65,13.25,13.25,0,0,1-1.3-2.29,15.15,15.15,0,0,1-1.33-6.08,14.34,14.34,0,0,1,.16-2.53,1.85,1.85,0,0,1,0-.23,39.15,39.15,0,0,1,1.08-5c0-.19.1-.37.15-.56.08-.35.16-.7.26-1s.22-.84.35-1.26a.39.39,0,0,1,.05-.14c0-.2.11-.39.17-.58.17-.54.35-1.07.55-1.59a4.35,4.35,0,0,1,.79-1.33A1.17,1.17,0,0,1,5.33,35a1,1,0,0,1,.47-.15.47.47,0,0,1,.17,0l0,0a1.16,1.16,0,0,1,.45.73.37.37,0,0,0,0,.11v0c.2.7.25.85.25.89l.2.72a.73.73,0,0,0,1.42-.08c0-.18.07-.36.11-.54a0,0,0,0,0,0,0,7.58,7.58,0,0,1,.7-2,2,2,0,0,1,1-1.05l.05,0a1,1,0,0,1,.71-.14l0,0a1.19,1.19,0,0,1,.55.49,2.07,2.07,0,0,1,.2,1.07,15.88,15.88,0,0,1-.59,3,.72.72,0,0,0,1.28.62c.81-1.09,1.38-1.83,1.69-2.18a3.09,3.09,0,0,1,1-.7l.2-.07a1.09,1.09,0,0,1,.69,0,.91.91,0,0,1,.53.57.86.86,0,0,1,0,.16,2.64,2.64,0,0,1-.31,1.16,23.92,23.92,0,0,1-1.25,2.14c-.42.6-.86,1.25-1.29,1.92q-.18.24-.33.48a.73.73,0,0,0-.06.67.71.71,0,0,0,.51.43,11.24,11.24,0,0,1,1.74.51,3.47,3.47,0,0,1,1.31.77.69.69,0,0,1,.21.37v0c.1.42.1.75-.73,1-1,.27-2.37.58-4,.93a.74.74,0,0,0-.55.53,8,8,0,0,0-.26,2.41,5.92,5.92,0,0,0,.12.93A5.35,5.35,0,0,0,12,51.78c.67,1.52,2.15,2.91,5,3.79a35.07,35.07,0,0,1-.74,6L16,62.58c-.08.35-.18.69-.27,1,0,.14-.08.28-.13.42s-.09.31-.14.47v0c0,.16-.09.31-.14.47ZM13.2,52.47a4.17,4.17,0,0,1-.69-1.21l-.9-.53A5.35,5.35,0,0,0,12,51.78c.67,1.52,2.15,2.91,5,3.79a35.07,35.07,0,0,1-.74,6L16,62.58c-.08.35-.18.69-.27,1,.19.26.36.53.53.8q.15-.48.27-1c0-.17.09-.34.13-.5s0,0,0,0v0s0,0,0-.08,0-.11,0-.16,0-.2.07-.3,0,0,0-.08,0-.06,0-.09,0,0,0,0c0-.21.09-.43.13-.63s.13-.65.19-1,.15-.91.21-1.37c.12-.91.21-1.83.26-2.75,0-.47,0-.93.05-1.4A8.24,8.24,0,0,1,13.2,52.47Zm0,0a4.17,4.17,0,0,1-.69-1.21l-.9-.53A5.35,5.35,0,0,0,12,51.78c.67,1.52,2.15,2.91,5,3.79a35.07,35.07,0,0,1-.74,6L16,62.58c-.08.35-.18.69-.27,1,.19.26.36.53.53.8q.15-.48.27-1c0-.17.09-.34.13-.5s0,0,0,0v0s0,0,0-.08,0-.11,0-.16,0-.2.07-.3,0,0,0-.08,0-.06,0-.09,0,0,0,0c0-.21.09-.43.13-.63s.13-.65.19-1,.15-.91.21-1.37c.12-.91.21-1.83.26-2.75,0-.47,0-.93.05-1.4A8.24,8.24,0,0,1,13.2,52.47Zm0,0a4.17,4.17,0,0,1-.69-1.21l-.9-.53A5.35,5.35,0,0,0,12,51.78c.67,1.52,2.15,2.91,5,3.79a35.07,35.07,0,0,1-.74,6L16,62.58c-.08.35-.18.69-.27,1,.19.26.36.53.53.8q.15-.48.27-1c0-.17.09-.34.13-.5s0,0,0,0v0s0,0,0-.08,0-.11,0-.16,0-.2.07-.3,0,0,0-.08,0-.06,0-.09,0,0,0,0c0-.21.09-.43.13-.63s.13-.65.19-1,.15-.91.21-1.37c.12-.91.21-1.83.26-2.75,0-.47,0-.93.05-1.4A8.24,8.24,0,0,1,13.2,52.47Zm0,0a4.17,4.17,0,0,1-.69-1.21l-.9-.53A5.35,5.35,0,0,0,12,51.78c.67,1.52,2.15,2.91,5,3.79a35.07,35.07,0,0,1-.74,6L16,62.58c-.08.35-.18.69-.27,1,.19.26.36.53.53.8q.15-.48.27-1c0-.17.09-.34.13-.5s0,0,0,0v0s0,0,0-.08,0-.11,0-.16,0-.2.07-.3,0,0,0-.08,0-.06,0-.09,0,0,0,0c0-.21.09-.43.13-.63s.13-.65.19-1,.15-.91.21-1.37c.12-.91.21-1.83.26-2.75,0-.47,0-.93.05-1.4A8.24,8.24,0,0,1,13.2,52.47Zm0,0a4.17,4.17,0,0,1-.69-1.21l-.9-.53A5.35,5.35,0,0,0,12,51.78c.67,1.52,2.15,2.91,5,3.79a35.07,35.07,0,0,1-.74,6L16,62.58c-.08.35-.18.69-.27,1,0,.14-.08.28-.13.42s-.09.31-.14.47v0q.27.41.51.81c.11-.3.2-.61.29-.92s.19-.64.27-1,.09-.34.13-.5,0,0,0,0v0s0,0,0-.08,0-.11,0-.16,0-.2.07-.3,0,0,0-.08,0-.06,0-.09,0,0,0,0c0-.21.09-.43.13-.63s.13-.65.19-1,.15-.91.21-1.37c.12-.91.21-1.83.26-2.75,0-.47,0-.93.05-1.4A8.24,8.24,0,0,1,13.2,52.47Z"/><path id="패스_6257" data-name="패스 6257" d="M12.51,42.54a.73.73,0,0,1-.89.51c-.93-.25-2,.25-3.32,1.49a.73.73,0,0,1-1,0,.72.72,0,0,1,0-1l0,0C9,41.88,10.54,41.25,12,41.65a.73.73,0,0,1,.51.89Z"/></g></g></g></g><g id="그룹_1741" data-name="그룹 1741"><path id="패스_6258" data-name="패스 6258" class="cls-4" d="M13.66,27.82l.15.05v-.05Zm67.88,17.1A9.88,9.88,0,0,0,80,42.14c-.23-.28-.47-.54-.72-.79a9.65,9.65,0,0,0-3.6-2.24l-1.49-.3-.41-.08c-1.18-.09-2.36-.19-3.53-.3l-1-.09-2.37-.23q-3.52-.34-7-.76l-2.15-.26-2.12-.28h0c-1.26-.16-2.52-.34-3.76-.53h0c-1.31-.17-2.6-.37-3.89-.59l-.7-.11-.64-.1-.12,0c-1.4-.22-2.79-.47-4.19-.72l-.13,0c-.25-.05-.51-.09-.76-.15s-.49-.08-.73-.13c-1.37-.25-2.73-.51-4.09-.8-1.07-.2-2.14-.43-3.2-.67q-9.48-2-18.76-4.87l-.69-.21h-.06l-.15-.05h0a.32.32,0,0,0-.27,0h0a11.94,11.94,0,0,0-4,.72h0a8.56,8.56,0,0,0-3.08,1.93c-.13.12-.25.25-.37.38s-.24.26-.35.4-.37.47-.54.71-.33.48-.48.74-.19.34-.28.52a8.71,8.71,0,0,0-.59,1.37v0a10.26,10.26,0,0,0-.45,1.71A10.58,10.58,0,0,0,3,37.93a9.23,9.23,0,0,0,0,1.39l.06.59,0,.15a11.64,11.64,0,0,0,3.73,7,29.75,29.75,0,0,0,4.72,3.65l.9.53c.37.22.75.43,1.14.62h0l.72.36c1.16.57,2.34,1.1,3.53,1.59h0c1.35.55,2.69,1,4.08,1.51.8.25,1.59.49,2.37.71,1.77.53,3.54,1,5.33,1.44h.08c1.06.27,2.13.5,3.2.72,2.26.52,4.52,1,6.8,1.39h0l.32,0c2.06.37,4.13.68,6.21,1,1.67.26,3.34.47,5,.64h.12c1.23.13,2.46.23,3.69.31l1.84.13.62,0c.44,0,.88,0,1.33,0h0q.82,0,1.65,0c1.76,0,3.51-.11,5.26-.29a29.73,29.73,0,0,0,8.83-2.23,11.77,11.77,0,0,0,6.27-6A10.79,10.79,0,0,0,81.54,44.92Z"/><path id="패스_6259" data-name="패스 6259" class="cls-3" d="M42.77,6.36q1.77,5.8,1.06,14.93a121.18,121.18,0,0,1-1.6,13.43h0c1.44.26,2.88.51,4.31.74a110,110,0,0,1,3.8-17.1q2.17-6.81,5-9.76A45.81,45.81,0,0,0,42.77,6.36Z"/><path id="패스_6260" data-name="패스 6260" class="cls-2" d="M44,15.05c0-.43,0-.85-.05-1.27s0-.58-.06-.87l0-.5-.09-.86,0-.25q0-.46-.12-.9c0-.1,0-.2,0-.3s0,0,0-.06h0s0,0,0-.07c0-.2-.06-.38-.1-.57a5,5,0,0,0-.11-.56c0-.21-.08-.4-.12-.59s0-.07,0-.1,0-.12,0-.18l0-.12c0-.22-.11-.44-.16-.65l0-.1-.21-.73q-1.42-4.3-3.64-5.22A4.43,4.43,0,0,0,37.71.75a1,1,0,0,0-.24,0,3.66,3.66,0,0,0-1,.05,3.83,3.83,0,0,0-.74.19,4.56,4.56,0,0,0-.84.39c-1.33.78-2,2.52-2.14,5.24A33.75,33.75,0,0,0,27,9.9a30.42,30.42,0,0,0-5,4.43,42.4,42.4,0,0,0-4.29,5.78c-.32.54-.63,1.08-.93,1.63a49.89,49.89,0,0,0-2.35,4.82q-.24.61-.54,1.26h-.06v.05h.06l.69.21Q23.85,30.91,33.32,33c1.06.24,2.13.47,3.2.67,1.36.29,2.72.55,4.09.8.24,0,.49.1.73.13s.51.1.76.15l.13,0h0l0-.19c.05-.26.09-.51.13-.77h0c0-.25.09-.51.13-.76a.77.77,0,0,0,0-.15q.2-1.17.36-2.34c0-.27.07-.53.11-.79.11-.84.21-1.67.3-2.51a.19.19,0,0,0,0-.08c0-.3.07-.59.1-.89l.15-1.57c0-.31.06-.62.08-.92.07-.82.13-1.63.18-2.45s.11-1.65.15-2.45c0-.37,0-.73,0-1.09s0-.52,0-.78a2.62,2.62,0,0,0,0-.28v-.17C44,16,44,15.54,44,15.05ZM75.37,39l-.28-.1-.22-.08v-.16c0-.42,0-.82-.05-1.2A50.91,50.91,0,0,0,74,30.23a38.25,38.25,0,0,0-2-6.91c-.1-.26-.2-.52-.31-.78-.22-.51-.45-1-.69-1.52s-.51-1-.78-1.47c-.42-.73-.87-1.43-1.35-2.12q-.46-.69-1-1.35a35.17,35.17,0,0,0-3.27-3.74q1.27-3.71,0-5.6a4.27,4.27,0,0,0-3.77-2c-1.6,0-3.44,1.27-5.5,3.84-.18.19-.35.39-.52.6h0l-.16.2-.22.29a2.32,2.32,0,0,0-.22.3c-.15.2-.29.41-.43.64l-.29.46c-.19.31-.38.64-.56,1l-.27.52c-.18.34-.35.7-.52,1.07s-.44,1-.65,1.54c-.1.24-.2.49-.29.74-.19.51-.38,1-.56,1.58-.1.27-.19.55-.28.83a1.21,1.21,0,0,0,0,.18q-.66,2.16-1.23,4.35c-.09.35-.18.7-.26,1.05s-.23.89-.33,1.34-.18.74-.25,1.11c-.14.61-.28,1.21-.4,1.82-.09.39-.17.8-.25,1.21,0,.08,0,.15-.05.23v0s0,0,0,0l0,.15c0,.08,0,.16,0,.24-.11.56-.21,1.12-.31,1.69l-.06.35,0,.21-.24,1.49h0l0,.22a2.08,2.08,0,0,0,0,.23.59.59,0,0,0,0,.13l0,.2h0c-.05.28-.09.54-.13.82l.64.1.7.11c1.29.21,2.58.41,3.89.6h0l1.31.19c.82.12,1.65.23,2.48.33l2.1.29,2.15.26q3.45.42,7,.76l2.37.22,1,.1,3.53.29.4.08h0l1.49.3A1.17,1.17,0,0,0,75.37,39Z"/><path id="패스_6261" data-name="패스 6261" d="M12,51.78a30,30,0,0,1-5.56-4.16,12.44,12.44,0,0,1-3.64-6,1.14,1.14,0,0,1-.06-.25A11,11,0,0,1,2.42,40c0-.21,0-.42-.07-.63a10.74,10.74,0,0,1-.05-1.6A11.6,11.6,0,0,1,5,30.8a9.63,9.63,0,0,1,5.25-3.29,14.22,14.22,0,0,1,3-.4l.19,0q.18-.39.33-.78c.51-1.22,1.08-2.42,1.69-3.6.51-1,1.06-2,1.64-3a43.1,43.1,0,0,1,4.36-5.89,31.44,31.44,0,0,1,5.1-4.54,34.71,34.71,0,0,1,5.51-3.18c.18-2.71,1-4.52,2.48-5.38A5.25,5.25,0,0,1,39.4.47c1.61.66,2.88,2.37,3.89,5.19a47.62,47.62,0,0,1,11.77,2.1C57.15,5.26,59,4,60.78,4h0a5,5,0,0,1,4.38,2.29c.95,1.38,1,3.34.26,5.81.37.38.73.76,1.08,1.15.7.79,1.37,1.6,2,2.45.32.42.62.85.92,1.28a27.74,27.74,0,0,1,3.2,6,39,39,0,0,1,2,7,51,51,0,0,1,.85,7.29c0,.28,0,.58,0,.89l.06,0a1.91,1.91,0,0,1,.32.16,10.39,10.39,0,0,1,6.25,6.23,11.53,11.53,0,0,1-.56,9A12.56,12.56,0,0,1,75,60a29.86,29.86,0,0,1-5.31,1.7,29.24,29.24,0,0,1-3.73.59c-1.36.14-2.72.22-4.09.26-.46,0-.93,0-1.39,0H58.85c-.41,0-.81,0-1.22,0-.85,0-1.68-.1-2.48-.16-1.17-.07-2.34-.17-3.52-.3h-.18c-1.74-.17-3.48-.4-5.19-.66-2.07-.27-4.17-.59-6.23-1l-.36-.06c-2.28-.41-4.58-.88-6.83-1.39-1.17-.24-2.35-.5-3.53-.79l-.07,0c-1.69-.41-3.39-.88-5.06-1.38-.78-.22-1.59-.46-2.38-.71-1.15-.38-2.29-.8-3.41-1.25-.26-.09-.52-.2-.77-.31-1.2-.49-2.39-1-3.56-1.59l-.86-.44c-.42-.22-.84-.45-1.25-.69m1.39-23.22a10.46,10.46,0,0,0-5,1.22,7.68,7.68,0,0,0-2.28,1.94,9.32,9.32,0,0,0-1.2,1.81A7.78,7.78,0,0,0,4.28,35a9.44,9.44,0,0,0-.55,3.12v.14a9.07,9.07,0,0,0,.06,1,11.09,11.09,0,0,0,3.59,7.3,28.58,28.58,0,0,0,4.11,3.24l.77.48c.28.17.56.34.85.5.52.29,1,.56,1.58.82A59.65,59.65,0,0,0,20.4,54h.05c.61.22,1.18.43,1.79.63.77.25,1.56.49,2.34.7,1.86.56,3.74,1.07,5.62,1.51l.08,0c.95.23,1.91.44,2.86.64,2.25.51,4.53,1,6.79,1.38l.35.06c2,.36,4.12.68,6.18,1,1.61.25,3.24.46,4.87.63h.07c.94.1,1.87.19,2.81.25l1,.08,1.8.11h0l.62,0c.5,0,1,0,1.5,0a59.08,59.08,0,0,0,6.65-.29,27.6,27.6,0,0,0,4.33-.74,28.33,28.33,0,0,0,4.28-1.44A11.12,11.12,0,0,0,80.35,53a10,10,0,0,0,.5-7.86,8.88,8.88,0,0,0-5.47-5.37l-.08,0-.06,0-.14-.08h0l-.18-.07-.08,0-.15-.05a.72.72,0,0,1-.51-.67h0v-.17c0-.4,0-.79,0-1.16a50.13,50.13,0,0,0-.83-7.11,37.21,37.21,0,0,0-2-6.77,26.09,26.09,0,0,0-3-5.74,34.21,34.21,0,0,0-4.15-5,.7.7,0,0,1-.17-.75c.76-2.23.78-3.89,0-5A3.57,3.57,0,0,0,60.8,5.49h0c-1.36,0-3,1.2-4.91,3.56a.75.75,0,0,1-.69.28l-.15,0-.25-.08h0A45.17,45.17,0,0,0,43,7.09h-.24a.71.71,0,0,1-.65-.5c-.88-2.64-2-4.25-3.23-4.77A3.81,3.81,0,0,0,35.26,2c-1.08.63-1.68,2.2-1.77,4.63a.73.73,0,0,1-.43.64,34.09,34.09,0,0,0-5.67,3.22,29.82,29.82,0,0,0-4.86,4.33,41.64,41.64,0,0,0-4.21,5.67c-.08.13-.15.26-.22.39a49.66,49.66,0,0,0-3,6c-.16.4-.34.83-.53,1.25,0,0,0,0,0,0a.87.87,0,0,1-1,.44l0,0-.17,0"/><path id="패스_6262" data-name="패스 6262" d="M47.18,35.58c.07-.36-.17-.72-.7-1.08a5.86,5.86,0,0,0-4.12-.74c-.61.15-1,.41-1,.77s.17.71.69,1.07a5.34,5.34,0,0,0,2,.75,5.22,5.22,0,0,0,2.12,0c.62-.15,1-.4,1-.76Z"/><path id="패스_6263" data-name="패스 6263" d="M46.87,33.9l-.08,0h0A5.5,5.5,0,0,0,44.61,33a5.88,5.88,0,0,0-2.09,0l-.35.06c-1.14.28-1.48.89-1.56,1.35v0c-.08.45,0,1.11,1,1.77a6,6,0,0,0,2.28.86,7.33,7.33,0,0,0,1.24.11h0A5.15,5.15,0,0,0,46.3,37c1.16-.28,1.5-.88,1.58-1.34v0h0C48,35.21,47.83,34.55,46.87,33.9Zm-2.73,1.73A4.49,4.49,0,0,1,42.42,35a1.06,1.06,0,0,1-.32-.28l-.05-.06.21-.12.25-.07a4.75,4.75,0,0,1,1.84,0,4.55,4.55,0,0,1,1.71.64,1.24,1.24,0,0,1,.38.34h0a1.3,1.3,0,0,1-.46.18A4.65,4.65,0,0,1,44.14,35.63Z"/><path id="패스_6264" data-name="패스 6264" class="cls-4" d="M40.58,28.13a4.94,4.94,0,0,0-1.13-3.57A4.07,4.07,0,0,0,36.32,23,4.29,4.29,0,0,0,33,24.31a5.13,5.13,0,0,0-1.54,3.48,4.93,4.93,0,0,0,1.14,3.57,4.15,4.15,0,0,0,3.14,1.58,4.28,4.28,0,0,0,3.3-1.34,5.16,5.16,0,0,0,1.53-3.47Z"/><path id="패스_6265" data-name="패스 6265" d="M40,24.1a4.8,4.8,0,0,0-3.67-1.86,5,5,0,0,0-3.84,1.56,5.84,5.84,0,0,0-1.76,3.95A5.6,5.6,0,0,0,32,31.83,4.59,4.59,0,0,0,33.32,33a4.74,4.74,0,0,0,2.39.71h.21a4,4,0,0,0,.6,0,4.92,4.92,0,0,0,3-1.51,5.89,5.89,0,0,0,1.74-3.95A5.68,5.68,0,0,0,40,24.1Zm-3.88-.41h.15A3.35,3.35,0,0,1,38.88,25a4.25,4.25,0,0,1,1,2.7c0,.09,0,.18,0,.27v0s0,.05,0,.07a4.47,4.47,0,0,1-1.31,3,3.58,3.58,0,0,1-2.77,1.12,3.45,3.45,0,0,1-1.45-.36,3.26,3.26,0,0,1-.4-.24,3.4,3.4,0,0,1-.76-.71,4.18,4.18,0,0,1-1-3.07,4.38,4.38,0,0,1,1.33-3A3.54,3.54,0,0,1,36.12,23.69Z"/><path id="패스_6266" data-name="패스 6266" d="M38.37,31.93a4,4,0,0,0,1-5.26,3.35,3.35,0,0,0-4.9-.88,4,4,0,0,0-.94,5.26,3.32,3.32,0,0,0,4.89.88Z"/><path id="패스_6267" data-name="패스 6267" class="cls-4" d="M50.14,29.85a5,5,0,0,1,2.3-3,4.11,4.11,0,0,1,3.5-.4,4.34,4.34,0,0,1,2.63,2.42,5.13,5.13,0,0,1,.23,3.79,4.9,4.9,0,0,1-2.31,3A4.14,4.14,0,0,1,53,36a4.28,4.28,0,0,1-2.63-2.4,5.15,5.15,0,0,1-.22-3.78Z"/><path id="패스_6268" data-name="패스 6268" d="M59.23,28.6a5,5,0,0,0-3.06-2.81,4.83,4.83,0,0,0-4.09.47,6,6,0,0,0-1,.73,3.83,3.83,0,0,0-.29.28,5.83,5.83,0,0,0-1.34,2.36,5.92,5.92,0,0,0,.25,4.3,5.08,5.08,0,0,0,2.07,2.34h0a5,5,0,0,0,2.53.7,4.62,4.62,0,0,0,1.23-.17h0a4.79,4.79,0,0,0,1.26-.52,5.66,5.66,0,0,0,2.65-3.37A5.85,5.85,0,0,0,59.23,28.6Zm-2.75,6.19c-.11.08-.23.15-.35.22a3,3,0,0,1-.73.33,3.36,3.36,0,0,1-2.17,0,3.54,3.54,0,0,1-2.2-2,4.4,4.4,0,0,1-.23-3.13h0a.74.74,0,0,1,0-.14h0a4.24,4.24,0,0,1,2-2.54,3.34,3.34,0,0,1,2.9-.34,3.59,3.59,0,0,1,2.2,2,4.39,4.39,0,0,1,.2,3.28,4.23,4.23,0,0,1-1,1.77A3.59,3.59,0,0,1,56.48,34.79Z"/><path id="패스_6269" data-name="패스 6269" d="M53.16,35.72a3.28,3.28,0,0,0,2.65-.65,4,4,0,0,0,.94-5.26,3.33,3.33,0,0,0-4.59-1.09,1.61,1.61,0,0,0-.3.21,4,4,0,0,0-1,5.26,3.31,3.31,0,0,0,2.25,1.53Z"/><path id="패스_6270" data-name="패스 6270" class="cls-4" d="M36,27.71a1.67,1.67,0,0,0,.18-.28.72.72,0,0,0-.23-.85.35.35,0,0,0-.32-.12.53.53,0,0,0-.37,0,1.05,1.05,0,0,0-.37.25.62.62,0,0,0-.14.43.77.77,0,0,0,.1.42,1.22,1.22,0,0,0,.33.31.66.66,0,0,0,.44,0,.62.62,0,0,0,.38-.16Z"/><path id="패스_6271" data-name="패스 6271" class="cls-4" d="M55.69,30.14a.37.37,0,0,0-.33-.12A.45.45,0,0,0,55,30a.91.91,0,0,0-.37.24.71.71,0,0,0-.15.44.86.86,0,0,0,.1.41,1.12,1.12,0,0,0,.33.32.61.61,0,0,0,.42,0,.51.51,0,0,0,.39-.16l.2-.28a.75.75,0,0,0,0-.53.6.6,0,0,0-.21-.31Z"/><path id="패스_6272" data-name="패스 6272" class="cls-6" d="M51.23,41.81v-.06a1.92,1.92,0,0,0-1.39-2,28.7,28.7,0,0,0-4.48-1l-1.53-.26-.28,0L42,38.21a26.93,26.93,0,0,0-4.55-.63,1.9,1.9,0,0,0-2,1.34s0,0,0,0a9.47,9.47,0,0,0-.08,4.46,2.68,2.68,0,0,0,.07.27,7.77,7.77,0,0,0,2.23,3.8,7.48,7.48,0,0,0,3.66,1.91l.22,0,.15,0,.13,0,.22,0a7.48,7.48,0,0,0,4.1-.52,7.73,7.73,0,0,0,3.41-2.78,1.88,1.88,0,0,0,.16-.23,9.42,9.42,0,0,0,1.48-4.2Z"/><path id="패스_6273" data-name="패스 6273" class="cls-4" d="M46.16,41.2A10.78,10.78,0,0,0,46.45,40l0-.23-5.84-1a7.33,7.33,0,0,0,0,2.8,1.74,1.74,0,0,0,1.24,1,5.49,5.49,0,0,0,2.75.29,2.15,2.15,0,0,0,1.51-1.6Z"/><path id="패스_6274" data-name="패스 6274" d="M44,43.61a8.32,8.32,0,0,1-2.26-.4A2.42,2.42,0,0,1,40,41.72a7.55,7.55,0,0,1-.06-3.14.72.72,0,0,1,1.44.12v0a6.32,6.32,0,0,0,0,2.49c.06.16.21.41.76.57a4.53,4.53,0,0,0,2.36.28c.3-.07.73-.27,1-1.11a10.7,10.7,0,0,0,.26-1.12q0-.16,0-.27a.73.73,0,1,1,1.43.26h0s0,.1,0,.15a.07.07,0,0,1,0,0,12,12,0,0,1-.31,1.35,2.85,2.85,0,0,1-2,2.1,3.26,3.26,0,0,1-.88.1Z"/><path id="패스_6275" data-name="패스 6275" d="M51.42,40.16a3.79,3.79,0,0,0-2.91-1.24,61.85,61.85,0,0,1-9.26-1.61c-3.11-1-4.12.61-4.44,1.62a.05.05,0,0,0,0,0,8.46,8.46,0,0,0-.23,1.22,8.61,8.61,0,0,0-.08,1.24,9.92,9.92,0,0,0,.48,3A8.11,8.11,0,0,0,38.6,49a8.64,8.64,0,0,0,4.56,1.29h0a10.15,10.15,0,0,0,1.1-.07,8.07,8.07,0,0,0,5.15-2.66,9.84,9.84,0,0,0,2.43-4.74A3.19,3.19,0,0,0,51.42,40.16ZM36.55,44.62a5.71,5.71,0,0,1-.21-.58h0a8.28,8.28,0,0,1-.15-4.68c.13-.41.46-1.32,2.65-.65h0l1,.24.71.17.71.15q2.19.46,4.41.78l.72.09q.36.06.72.09l1.26.14a2.65,2.65,0,0,1,1.87.67,1.88,1.88,0,0,1,.15,1.52,8.36,8.36,0,0,1-2.08,4.06,6.62,6.62,0,0,1-4.25,2.2,7.21,7.21,0,0,1-4.73-1,6.65,6.65,0,0,1-1.45-1.13,6.1,6.1,0,0,1-.41-.46,5.74,5.74,0,0,1-.36-.5A6.23,6.23,0,0,1,36.55,44.62Z"/><path id="패스_6276" data-name="패스 6276" class="cls-2" d="M13.2,52.47a4.17,4.17,0,0,1-.69-1.21,3.92,3.92,0,0,1-.25-1,6.82,6.82,0,0,1,.19-2.72c1.64-.35,3-.67,4-.94s1.48-.87,1.26-1.82a1.46,1.46,0,0,0-.4-.73,4.12,4.12,0,0,0-1.59-1,11.64,11.64,0,0,0-1.83-.54c.1-.15.2-.3.31-.44.44-.68.87-1.32,1.29-1.93A21.74,21.74,0,0,0,16.82,38a3.18,3.18,0,0,0,.4-1.51,2.91,2.91,0,0,0,0-.31,1.6,1.6,0,0,0-1-1.06A1.81,1.81,0,0,0,15,35l-.26.09a4,4,0,0,0-1.23.88c-.33.38-.91,1.12-1.74,2.24a15.18,15.18,0,0,0,.62-3.14,2.7,2.7,0,0,0-.32-1.5,1.88,1.88,0,0,0-.89-.76A1.53,1.53,0,0,0,9.9,33a2.73,2.73,0,0,0-1.36,1.4,8,8,0,0,0-.76,2.14,4.26,4.26,0,0,0-.13.62c-.11-.39-.17-.63-.19-.71s-.12-.39-.28-.93l0-.12a1.79,1.79,0,0,0-.85-1.19h0a1.26,1.26,0,0,0-.66-.1A1.4,1.4,0,0,0,5,34.3a3.65,3.65,0,0,0-.7.66,3.4,3.4,0,0,0-.67,1.24c-.22.57-.42,1.15-.59,1.73s-.43,1.38-.6,2.09c-.09.29-.16.59-.23.89A43.67,43.67,0,0,0,.9,46.81a15.9,15.9,0,0,0,.76,7.8c.14.41.3.81.48,1.21A14.08,14.08,0,0,0,3.32,58c.14.22.29.43.44.64s.33.43.51.64a14.61,14.61,0,0,0,3.54,3.15,29.08,29.08,0,0,0,7.56,3.35l.41.12c.06-.18.12-.36.17-.54s.2-.61.29-.92.19-.64.27-1,.09-.34.13-.5,0,0,0,0v0s0,0,0-.08,0-.11,0-.16,0-.2.07-.3,0,0,0-.08,0-.06,0-.09,0,0,0,0c0-.21.09-.43.13-.63s.13-.65.19-1,.15-.91.21-1.37c.12-.91.21-1.83.26-2.75,0-.47,0-.93.05-1.4A8.24,8.24,0,0,1,13.2,52.47Z"/><path id="패스_6277" data-name="패스 6277" d="M13.2,52.47a4.17,4.17,0,0,1-.69-1.21l-.9-.53A5.35,5.35,0,0,0,12,51.78c.67,1.52,2.15,2.91,5,3.79a35.07,35.07,0,0,1-.74,6L16,62.58c-.09.34-.18.69-.28,1l-.12.43c.05-.14.09-.28.13-.42.19.26.36.53.53.8q.15-.48.27-1c0-.17.09-.34.13-.5s0,0,0,0v0s0,0,0-.08,0-.11,0-.16,0-.2.07-.3,0,0,0-.08,0-.06,0-.09,0,0,0,0c0-.21.09-.43.13-.63s.13-.65.19-1,.15-.91.21-1.37c.12-.91.21-1.83.26-2.75,0-.47,0-.93.05-1.4A8.24,8.24,0,0,1,13.2,52.47Zm0,0a4.17,4.17,0,0,1-.69-1.21l-.9-.53A5.35,5.35,0,0,0,12,51.78c.67,1.52,2.15,2.91,5,3.79a35.07,35.07,0,0,1-.74,6L16,62.58c-.09.34-.18.69-.28,1l-.12.43c.05-.14.09-.28.13-.42.19.26.36.53.53.8q.15-.48.27-1c0-.17.09-.34.13-.5s0,0,0,0v0s0,0,0-.08,0-.11,0-.16,0-.2.07-.3,0,0,0-.08,0-.06,0-.09,0,0,0,0c0-.21.09-.43.13-.63s.13-.65.19-1,.15-.91.21-1.37c.12-.91.21-1.83.26-2.75,0-.47,0-.93.05-1.4A8.24,8.24,0,0,1,13.2,52.47Zm0,0a4.17,4.17,0,0,1-.69-1.21l-.9-.53A5.35,5.35,0,0,0,12,51.78c.67,1.52,2.15,2.91,5,3.79a35.07,35.07,0,0,1-.74,6L16,62.58c-.09.34-.18.69-.28,1l-.12.43c.05-.14.09-.28.13-.42.19.26.36.53.53.8q.15-.48.27-1c0-.17.09-.34.13-.5s0,0,0,0v0s0,0,0-.08,0-.11,0-.16,0-.2.07-.3,0,0,0-.08,0-.06,0-.09,0,0,0,0c0-.21.09-.43.13-.63s.13-.65.19-1,.15-.91.21-1.37c.12-.91.21-1.83.26-2.75,0-.47,0-.93.05-1.4A8.24,8.24,0,0,1,13.2,52.47Zm0,0a4.17,4.17,0,0,1-.69-1.21l-.9-.53A5.35,5.35,0,0,0,12,51.78c.67,1.52,2.15,2.91,5,3.79a35.07,35.07,0,0,1-.74,6L16,62.58c-.09.34-.18.69-.28,1l-.12.43c.05-.14.09-.28.13-.42.19.26.36.53.53.8q.15-.48.27-1c0-.17.09-.34.13-.5s0,0,0,0v0s0,0,0-.08,0-.11,0-.16,0-.2.07-.3,0,0,0-.08,0-.06,0-.09,0,0,0,0c0-.21.09-.43.13-.63s.13-.65.19-1,.15-.91.21-1.37c.12-.91.21-1.83.26-2.75,0-.47,0-.93.05-1.4A8.24,8.24,0,0,1,13.2,52.47Zm0,0a4.17,4.17,0,0,1-.69-1.21l-.9-.53A5.35,5.35,0,0,0,12,51.78c.67,1.52,2.15,2.91,5,3.79a35.07,35.07,0,0,1-.74,6L16,62.58c-.09.34-.18.69-.28,1l-.12.43c.05-.14.09-.28.13-.42.19.26.36.53.53.8q.15-.48.27-1c0-.17.09-.34.13-.5s0,0,0,0v0s0,0,0-.08,0-.11,0-.16,0-.2.07-.3,0,0,0-.08,0-.06,0-.09,0,0,0,0c0-.21.09-.43.13-.63s.13-.65.19-1,.15-.91.21-1.37c.12-.91.21-1.83.26-2.75,0-.47,0-.93.05-1.4A8.24,8.24,0,0,1,13.2,52.47ZM24.38,66.74A.69.69,0,0,0,24,66.2a.72.72,0,0,0-.44-.07l-.36.05c-.34.06-.68.1-1,.13a20.5,20.5,0,0,1-2.07.11,21.2,21.2,0,0,1-2.76-.18l-.87-.14c.1-.28.19-.56.27-.85A35.62,35.62,0,0,0,18.41,55v0s0,0,0-.06v-.12l0-.23c.56,0,1.14.07,1.74.13l-2.54-.78-.73-.22a.6.6,0,0,0,0,.19V54a6.37,6.37,0,0,1-3.18-2.11h0a3.76,3.76,0,0,1-.54-1.1,5.25,5.25,0,0,1,0-2.6c1.45-.32,2.66-.6,3.6-.85A2.1,2.1,0,0,0,18.53,45a2.45,2.45,0,0,0-.08-.37,2.14,2.14,0,0,0-.57-1.08A4.88,4.88,0,0,0,16,42.44a9,9,0,0,0-.92-.31c.35-.53.69-1,1-1.53a25.32,25.32,0,0,0,1.35-2.31A3.89,3.89,0,0,0,18,36.43a3.47,3.47,0,0,0-.06-.45s0,0,0,0a2.32,2.32,0,0,0-1.39-1.52,2.53,2.53,0,0,0-1.65-.08h0l-.25.09-.06,0a4.46,4.46,0,0,0-1.35.93c0-.1,0-.19,0-.28a3.33,3.33,0,0,0-.43-1.9,2.64,2.64,0,0,0-1.22-1,2.24,2.24,0,0,0-1.89.13A3.41,3.41,0,0,0,7.91,34l-.29.58A2.16,2.16,0,0,0,7.21,34a2.1,2.1,0,0,0-.61-.45,1.14,1.14,0,0,0-.26-.09l-.16,0-.15,0a2.17,2.17,0,0,0-.51,0l-.21,0a1.87,1.87,0,0,0-.4.13h0a1.41,1.41,0,0,0-.24.13,4.34,4.34,0,0,0-1,.94v0a4.25,4.25,0,0,0-.68,1.3c-.23.62-.45,1.24-.64,1.87-.31,1-.58,1.93-.81,2.92a45.68,45.68,0,0,0-1.3,6,16.75,16.75,0,0,0,1.29,9.42,12.81,12.81,0,0,0,.59,1.17,10,10,0,0,0,.52.9c.14.21.27.42.43.62a6.43,6.43,0,0,0,.47.63A15.32,15.32,0,0,0,7.43,63a29.16,29.16,0,0,0,7.41,3.36h0a.71.71,0,0,0,.43.93l.07,0c.37.09.75.17,1.13.24s.63.11.94.14.63.08.94.1c.53,0,1.05.06,1.58.06s1,0,1.58-.06c.27,0,.55,0,.82-.06s.55-.06.82-.1l.61-.08a.74.74,0,0,0,.62-.82ZM15.29,65l-.51-.16a28,28,0,0,1-6.57-3,14.79,14.79,0,0,1-3.09-2.65c-.19-.22-.38-.45-.55-.68a7.11,7.11,0,0,1-.47-.65,13.25,13.25,0,0,1-1.3-2.29,15.15,15.15,0,0,1-1.33-6.08,14.34,14.34,0,0,1,.16-2.53,1.85,1.85,0,0,1,0-.23,39.15,39.15,0,0,1,1.08-5c0-.19.1-.37.15-.56.08-.35.16-.7.26-1s.22-.84.35-1.26a.39.39,0,0,1,.05-.14c0-.2.11-.39.17-.58.17-.54.35-1.07.55-1.59a4.35,4.35,0,0,1,.79-1.33A1.17,1.17,0,0,1,5.33,35a1,1,0,0,1,.47-.15.47.47,0,0,1,.17,0l0,0a1.16,1.16,0,0,1,.45.73.37.37,0,0,0,0,.11v0c.2.7.25.85.25.89l.2.72a.73.73,0,0,0,1.42-.08c0-.18.07-.36.11-.54a0,0,0,0,0,0,0,7.58,7.58,0,0,1,.7-2,2,2,0,0,1,1-1.05l.05,0a1,1,0,0,1,.71-.14l0,0a1.19,1.19,0,0,1,.55.49,2.07,2.07,0,0,1,.2,1.07,15.88,15.88,0,0,1-.59,3,.72.72,0,0,0,1.28.62c.81-1.09,1.38-1.83,1.69-2.18a3.09,3.09,0,0,1,1-.7l.2-.07a1.09,1.09,0,0,1,.69,0,.91.91,0,0,1,.53.57.86.86,0,0,1,0,.16,2.64,2.64,0,0,1-.31,1.16,23.92,23.92,0,0,1-1.25,2.14c-.42.6-.86,1.25-1.29,1.92q-.18.24-.33.48a.73.73,0,0,0-.06.67.71.71,0,0,0,.51.43,11.24,11.24,0,0,1,1.74.51,3.47,3.47,0,0,1,1.31.77.69.69,0,0,1,.21.37v0c.1.42.1.75-.73,1-1,.27-2.37.58-4,.93a.74.74,0,0,0-.55.53,8,8,0,0,0-.26,2.41,5.92,5.92,0,0,0,.12.93A5.35,5.35,0,0,0,12,51.78c.67,1.52,2.15,2.91,5,3.79a35.07,35.07,0,0,1-.74,6L16,62.58c-.09.34-.18.69-.28,1l-.12.43c0,.16-.09.31-.14.47v0ZM13.2,52.47a4.17,4.17,0,0,1-.69-1.21l-.9-.53A5.35,5.35,0,0,0,12,51.78c.67,1.52,2.15,2.91,5,3.79a35.07,35.07,0,0,1-.74,6L16,62.58c-.09.34-.18.69-.28,1l-.12.43c.05-.14.09-.28.13-.42.19.26.36.53.53.8q.15-.48.27-1c0-.17.09-.34.13-.5s0,0,0,0v0s0,0,0-.08,0-.11,0-.16,0-.2.07-.3,0,0,0-.08,0-.06,0-.09,0,0,0,0c0-.21.09-.43.13-.63s.13-.65.19-1,.15-.91.21-1.37c.12-.91.21-1.83.26-2.75,0-.47,0-.93.05-1.4A8.24,8.24,0,0,1,13.2,52.47Zm0,0a4.17,4.17,0,0,1-.69-1.21l-.9-.53A5.35,5.35,0,0,0,12,51.78c.67,1.52,2.15,2.91,5,3.79a35.07,35.07,0,0,1-.74,6L16,62.58c-.09.34-.18.69-.28,1l-.12.43c.05-.14.09-.28.13-.42.19.26.36.53.53.8q.15-.48.27-1c0-.17.09-.34.13-.5s0,0,0,0v0s0,0,0-.08,0-.11,0-.16,0-.2.07-.3,0,0,0-.08,0-.06,0-.09,0,0,0,0c0-.21.09-.43.13-.63s.13-.65.19-1,.15-.91.21-1.37c.12-.91.21-1.83.26-2.75,0-.47,0-.93.05-1.4A8.24,8.24,0,0,1,13.2,52.47Zm0,0a4.17,4.17,0,0,1-.69-1.21l-.9-.53A5.35,5.35,0,0,0,12,51.78c.67,1.52,2.15,2.91,5,3.79a35.07,35.07,0,0,1-.74,6L16,62.58c-.09.34-.18.69-.28,1l-.12.43c.05-.14.09-.28.13-.42.19.26.36.53.53.8q.15-.48.27-1c0-.17.09-.34.13-.5s0,0,0,0v0s0,0,0-.08,0-.11,0-.16,0-.2.07-.3,0,0,0-.08,0-.06,0-.09,0,0,0,0c0-.21.09-.43.13-.63s.13-.65.19-1,.15-.91.21-1.37c.12-.91.21-1.83.26-2.75,0-.47,0-.93.05-1.4A8.24,8.24,0,0,1,13.2,52.47Zm0,0a4.17,4.17,0,0,1-.69-1.21l-.9-.53A5.35,5.35,0,0,0,12,51.78c.67,1.52,2.15,2.91,5,3.79a35.07,35.07,0,0,1-.74,6L16,62.58c-.09.34-.18.69-.28,1l-.12.43c.05-.14.09-.28.13-.42.19.26.36.53.53.8q.15-.48.27-1c0-.17.09-.34.13-.5s0,0,0,0v0s0,0,0-.08,0-.11,0-.16,0-.2.07-.3,0,0,0-.08,0-.06,0-.09,0,0,0,0c0-.21.09-.43.13-.63s.13-.65.19-1,.15-.91.21-1.37c.12-.91.21-1.83.26-2.75,0-.47,0-.93.05-1.4A8.24,8.24,0,0,1,13.2,52.47Zm0,0a4.17,4.17,0,0,1-.69-1.21l-.9-.53A5.35,5.35,0,0,0,12,51.78c.67,1.52,2.15,2.91,5,3.79a35.07,35.07,0,0,1-.74,6L16,62.58c-.09.34-.18.69-.28,1l-.12.43c0,.16-.09.31-.14.47v0q.27.41.51.81c.11-.3.2-.61.29-.92s.19-.64.27-1,.09-.34.13-.5,0,0,0,0v0s0,0,0-.08,0-.11,0-.16,0-.2.07-.3,0,0,0-.08,0-.06,0-.09,0,0,0,0c0-.21.09-.43.13-.63s.13-.65.19-1,.15-.91.21-1.37c.12-.91.21-1.83.26-2.75,0-.47,0-.93.05-1.4A8.24,8.24,0,0,1,13.2,52.47ZM15.29,65h0c0-.16.1-.31.14-.47Z"/><path id="패스_6278" data-name="패스 6278" d="M12.51,42.54a.73.73,0,0,1-.89.51c-.93-.25-2,.25-3.32,1.49a.73.73,0,0,1-1,0,.72.72,0,0,1,0-1,.08.08,0,0,1,0,0C9,41.88,10.54,41.25,12,41.65a.73.73,0,0,1,.51.89Z"/></g></g><g id="그룹_1750" data-name="그룹 1750"><g id="그룹_1743" data-name="그룹 1743"><path id="패스_5565" data-name="패스 5565" class="cls-1" d="M34.77,76.18a1.49,1.49,0,0,0-.75-.63,1.5,1.5,0,0,0,.65-.49A1.4,1.4,0,0,0,35,74.3a1.33,1.33,0,0,0-.47-1.21,2.82,2.82,0,0,0-1.65-.6l-3-.31-.52,4.9-.08.76,0,.38,1.27.13,1.86.2a3.35,3.35,0,0,0,.95,0,3.2,3.2,0,0,0,.9-.26A1.38,1.38,0,0,0,35,77.16,1.46,1.46,0,0,0,34.77,76.18Zm-3.6-2.8,1.39.14a1.61,1.61,0,0,1,.77.26.63.63,0,0,1,.21.56.62.62,0,0,1-.32.51,1.42,1.42,0,0,1-.81.1L31,74.8Zm2.07,4a1.65,1.65,0,0,1-.85.1l-1.64-.18.16-1.49,1.63.17c.74.08,1.09.37,1,.87A.62.62,0,0,1,33.24,77.39Z"/><path id="패스_5566" data-name="패스 5566" class="cls-1" d="M40.47,75.8a2.26,2.26,0,0,0-.82-.94,2.77,2.77,0,0,0-1.28-.45,3,3,0,0,0-1.35.17,2.32,2.32,0,0,0-1.46,2,2.42,2.42,0,0,0,.2,1.27,2.33,2.33,0,0,0,.82.94,2.86,2.86,0,0,0,1.28.45A2.82,2.82,0,0,0,39.21,79a2.41,2.41,0,0,0,1-.76,2.36,2.36,0,0,0,.46-1.2A2.42,2.42,0,0,0,40.47,75.8Zm-1.6,2a1.14,1.14,0,0,1-.89.26,1.09,1.09,0,0,1-.81-.44,1.26,1.26,0,0,1-.24-1,1.29,1.29,0,0,1,.43-.9,1.23,1.23,0,0,1,1.71.18,1.34,1.34,0,0,1,.23,1A1.31,1.31,0,0,1,38.87,77.83Z"/><path id="패스_5567" data-name="패스 5567" class="cls-1" d="M44.22,79.57a1.54,1.54,0,0,1-.51.17,3.21,3.21,0,0,1-.62,0,1.83,1.83,0,0,1-1.24-.56,1.67,1.67,0,0,1-.32-1.29l.2-1.91L41,75.91l.11-1,.72.07L42,73.82l1.35.14-.12,1.13,1.15.12-.11,1-1.15-.12L42.88,78a.66.66,0,0,0,.1.47.54.54,0,0,0,.41.2.84.84,0,0,0,.56-.11Z"/></g><g id="그룹_1749" data-name="그룹 1749"><path id="패스_5568" data-name="패스 5568" class="cls-1" d="M28.31,69.77a3.07,3.07,0,0,1-1.08-1.26,3.33,3.33,0,0,1,.35-3.28,3,3,0,0,1,1.31-1A3.62,3.62,0,0,1,30.64,64a3.73,3.73,0,0,1,1.42.44,2.85,2.85,0,0,1,1,.92l-1,.75a2,2,0,0,0-1.47-.89,2.09,2.09,0,0,0-1.05.15,1.8,1.8,0,0,0-.77.62,2.12,2.12,0,0,0-.36,1,2,2,0,0,0,.14,1,1.8,1.8,0,0,0,.62.77,2,2,0,0,0,1,.36,2,2,0,0,0,1.62-.57l.83.94a2.92,2.92,0,0,1-1.18.71,3.67,3.67,0,0,1-1.47.13,3.5,3.5,0,0,1-1.66-.59Z"/><path id="패스_5569" data-name="패스 5569" class="cls-1" d="M37.87,66.76a2.11,2.11,0,0,1,.38,1.63L38,71.09,36.59,71l.26-2.5a1.23,1.23,0,0,0-.15-.86.9.9,0,0,0-.69-.35,1.08,1.08,0,0,0-.86.23,1.33,1.33,0,0,0-.41.92l-.24,2.34-1.37-.14.68-6.53,1.37.15-.24,2.28a2.05,2.05,0,0,1,.71-.35,2.26,2.26,0,0,1,.86,0,1.94,1.94,0,0,1,1.36.67Z"/><path id="패스_5570" data-name="패스 5570" class="cls-1" d="M43,67.3a2.55,2.55,0,0,0-1.63-.7,3.88,3.88,0,0,0-1.13,0,3,3,0,0,0-1,.32l.39,1a1.91,1.91,0,0,1,.65-.25,2.43,2.43,0,0,1,.76,0,1.24,1.24,0,0,1,.8.32.89.89,0,0,1,.2.72L41,68.61a2.58,2.58,0,0,0-1.57.21,1.24,1.24,0,0,0-.61,1,1.43,1.43,0,0,0,.13.76,1.4,1.4,0,0,0,.56.57,2.35,2.35,0,0,0,.93.29A1.54,1.54,0,0,0,42,70.92l-.06.59,1.28.13.28-2.7A2,2,0,0,0,43,67.3ZM42,70a.92.92,0,0,1-.44.43,1.17,1.17,0,0,1-.64.1.91.91,0,0,1-.55-.21.5.5,0,0,1-.17-.44c0-.37.34-.53.91-.47l.94.1Z"/><path id="패스_5571" data-name="패스 5571" class="cls-1" d="M47.28,71.84a1.38,1.38,0,0,1-.52.17,2.22,2.22,0,0,1-.63,0,1.86,1.86,0,0,1-1.26-.56,1.68,1.68,0,0,1-.33-1.32l.2-1.94L44,68.12l.12-1.05.73.07L45,66l1.37.14-.12,1.16,1.18.12-.11,1.06-1.18-.13-.21,1.93a.64.64,0,0,0,.11.48.55.55,0,0,0,.42.2.87.87,0,0,0,.57-.11Z"/></g></g></g></g></g></svg>