<svg xmlns="http://www.w3.org/2000/svg" xmlns:xlink="http://www.w3.org/1999/xlink" width="59.542" height="72.936" viewBox="0 0 59.542 72.936">
  <defs>
    <linearGradient id="linear-gradient" x1="-8.953" y1="7.364" x2="-8.035" y2="6.372" gradientUnits="objectBoundingBox">
      <stop offset="0.1" stop-color="#00b0f0"/>
      <stop offset="0.4" stop-color="#0063b2"/>
      <stop offset="1" stop-color="#003c87"/>
    </linearGradient>
    <radialGradient id="radial-gradient" cx="0.118" cy="0.827" r="1.342" gradientTransform="matrix(0.686, 0.08, -0.056, 1.016, -1.027, 0.255)" gradientUnits="objectBoundingBox">
      <stop offset="0" stop-color="#ed4c14"/>
      <stop offset="0.506" stop-color="#e50019"/>
      <stop offset="1" stop-color="#a71522"/>
    </radialGradient>
    <radialGradient id="radial-gradient-2" cx="0.604" cy="0.521" r="0.677" gradientTransform="matrix(0.787, 0.08, -0.064, 1.016, -0.465, 0.202)" gradientUnits="objectBoundingBox">
      <stop offset="0" stop-color="#00b0f0"/>
      <stop offset="0.5" stop-color="#0063b2"/>
      <stop offset="1" stop-color="#003c87"/>
    </radialGradient>
  </defs>
  <g id="그룹_1216" data-name="그룹 1216" transform="translate(-450.347 -492.742)">
    <g id="그룹_1215" data-name="그룹 1215" transform="translate(450.347 492.742)">
      <g id="그룹_1213" data-name="그룹 1213" transform="translate(0.365)">
        <g id="그룹_1200" data-name="그룹 1200" transform="translate(9.108)">
          <path id="패스_7891" data-name="패스 7891" d="M495.275,494.906c3,5.077-2.251,12.524-13.085,16.812-11.522,4.561-23.628,3.211-25.98,2.792,0,0,2.039,2.495,8.968,3.681,5,.86,11.538-.289,16.694-2.344C494.05,511,499.784,500.779,495.275,494.906Z" transform="translate(-456.21 -491.41)" fill="url(#linear-gradient)"/>
          <g id="그룹_1199" data-name="그룹 1199" transform="translate(5.388)">
            <path id="패스_7892" data-name="패스 7892" d="M487.457,503.558c3.72-5.4,1.023-10.467-6.419-10.8a17,17,0,0,0-3.985.313c-4.817.923-8.53,3.277-10.26,5.44-1.792,2.248-1.689,4.419-.814,5.486,1.512,1.852,5.238,1.312,6.555-.94-1.685-1.034,1.63-5.8,7.735-5.93,4.4-.092,6.213,2.642,5.694,5.232-.548,2.731-3.015,5.3-4.628,6.725A21.193,21.193,0,0,0,487.457,503.558Z" transform="translate(-455.959 -492.742)" fill="url(#radial-gradient)"/>
            <path id="패스_7893" data-name="패스 7893" d="M482.779,500.818a6.062,6.062,0,0,0-6.659,2.157c2.007,1.2-.473,5.41-6.079,5.481-4.337.053-6.883-2.572-5.7-5.967,1.441-4.107,8.32-8.152,14.3-9.619h0c-7.806,1.294-13.367,4.7-16.581,8.527-4.451,5.31-2.918,10.509,3.831,11.8a22.664,22.664,0,0,0,11.884-1.231C487.251,508.462,487.275,502.28,482.779,500.818Z" transform="translate(-459.545 -492.664)" fill="url(#radial-gradient-2)"/>
          </g>
        </g>
        <g id="그룹_1212" data-name="그룹 1212" transform="translate(0 29.77)">
          <g id="그룹_1201" data-name="그룹 1201">
            <path id="패스_7894" data-name="패스 7894" d="M460.273,529.71c-.139.006-.281.01-.423.01a9.256,9.256,0,1,1,2.813-.431,5.927,5.927,0,0,1,.136-1.679,7.751,7.751,0,1,0-2.949.58c.136,0,.275,0,.41-.01A5.316,5.316,0,0,0,460.273,529.71Z" transform="translate(-450.573 -511.167)" fill="#0070be"/>
          </g>
          <path id="패스_7895" data-name="패스 7895" d="M456.314,516.909" transform="translate(-447.038 -507.631)" fill="#007fcd"/>
          <path id="패스_7896" data-name="패스 7896" d="M456.314,516.909" transform="translate(-447.038 -507.631)" fill="#007fcd"/>
          <path id="패스_7897" data-name="패스 7897" d="M468.772,516.909" transform="translate(-439.366 -507.631)"/>
          <g id="그룹_1204" data-name="그룹 1204" transform="translate(20.199)">
            <g id="그룹_1202" data-name="그룹 1202">
              <path id="패스_7898" data-name="패스 7898" d="M475.089,529.288a9.278,9.278,0,1,0-12.015-9.973,8.618,8.618,0,0,1,1.512.255,7.744,7.744,0,1,1,10.622,8.047A6.681,6.681,0,0,0,475.089,529.288Z" transform="translate(-463.074 -511.167)" fill="#1a1818"/>
            </g>
            <g id="그룹_1203" data-name="그룹 1203" transform="translate(0.023 10.588)">
              <path id="패스_7899" data-name="패스 7899" d="M472.692,525.674c-.141.006-.28.01-.42.01a9.276,9.276,0,0,1-9.184-7.964,5.921,5.921,0,0,1,1.629.385,7.74,7.74,0,0,0,7.555,6.05c.139,0,.276,0,.414-.01A7.322,7.322,0,0,0,472.692,525.674Z" transform="translate(-463.088 -517.72)"/>
            </g>
          </g>
          <path id="패스_7900" data-name="패스 7900" d="M468.772,516.909" transform="translate(-439.366 -507.631)"/>
          <g id="그룹_1205" data-name="그룹 1205" transform="translate(40.327)">
            <path id="패스_7901" data-name="패스 7901" d="M477.182,522.143a7.75,7.75,0,1,0-.137-2.569,7.668,7.668,0,0,0-1.514-.259,9.275,9.275,0,1,1,.023,2.43A6.445,6.445,0,0,1,477.182,522.143Z" transform="translate(-475.531 -511.167)" fill="#e6183d"/>
          </g>
          <path id="패스_7902" data-name="패스 7902" d="M462.543,522.177" transform="translate(-443.202 -504.387)" fill="#ff9f1c"/>
          <g id="그룹_1208" data-name="그룹 1208" transform="translate(10.066 8.514)">
            <g id="그룹_1206" data-name="그룹 1206" transform="translate(8.854)">
              <path id="패스_7903" data-name="패스 7903" d="M471.889,524.415a9.278,9.278,0,0,0-9.186-7.979q-.2,0-.407.01a9.063,9.063,0,0,1-.013,1.537c.142-.008.276-.015.42-.015a7.75,7.75,0,0,1,7.559,6.046A6.339,6.339,0,0,0,471.889,524.415Z" transform="translate(-462.283 -516.436)" fill="#ff9f1c"/>
            </g>
            <g id="그룹_1207" data-name="그룹 1207" transform="translate(0 0.43)">
              <path id="패스_7904" data-name="패스 7904" d="M475.286,526.678a9.276,9.276,0,1,1-12.01-9.976,7.891,7.891,0,0,1-.128,1.676,7.745,7.745,0,1,0,10.625,8.05A7.349,7.349,0,0,0,475.286,526.678Z" transform="translate(-456.803 -516.702)" fill="#ff9f1c"/>
            </g>
          </g>
          <path id="패스_7905" data-name="패스 7905" d="M462.543,522.177" transform="translate(-443.202 -504.387)" fill="#ff9f1c"/>
          <path id="패스_7906" data-name="패스 7906" d="M475,522.177" transform="translate(-435.531 -504.387)" fill="#008e43"/>
          <g id="그룹_1211" data-name="그룹 1211" transform="translate(30.196 8.514)">
            <g id="그룹_1209" data-name="그룹 1209" transform="translate(0 0.433)">
              <path id="패스_7907" data-name="패스 7907" d="M487.742,526.677a9.275,9.275,0,1,1-12.013-9.973,6.3,6.3,0,0,1-.115,1.672,7.744,7.744,0,1,0,10.617,8.05A7.588,7.588,0,0,0,487.742,526.677Z" transform="translate(-469.261 -516.704)" fill="#00973d"/>
            </g>
            <g id="그룹_1210" data-name="그룹 1210" transform="translate(8.856)">
              <path id="패스_7908" data-name="패스 7908" d="M474.752,517.979c.136,0,.271-.011.409-.011a7.75,7.75,0,0,1,7.56,6.053,7.226,7.226,0,0,0,1.625.394,9.279,9.279,0,0,0-9.186-7.979c-.141,0-.28,0-.418.01a7.843,7.843,0,0,1,0,1.533" transform="translate(-474.742 -516.436)" fill="#00973d"/>
            </g>
          </g>
          <path id="패스_7909" data-name="패스 7909" d="M475,522.177" transform="translate(-435.531 -504.387)" fill="#008e43"/>
        </g>
      </g>
      <g id="그룹_1214" data-name="그룹 1214" transform="translate(0 60.499)">
        <path id="패스_7910" data-name="패스 7910" d="M462.082,541.069a.5.5,0,0,1-.157-.383v-2.052h-1.9v2.254a1.739,1.739,0,0,0,.378,1.105,1.19,1.19,0,0,0,.973.477h6.933v-1.257h-5.82A.576.576,0,0,1,462.082,541.069Zm2.59-6.167a2.978,2.978,0,0,0-.772-1.994h1.268v-1.189h-2.627v-1.288H460.56v1.288h-2.582v1.189h1.2a2.973,2.973,0,0,0-.776,1.994,3.137,3.137,0,0,0,6.271,0Zm-4.367-.108c0-1.091.553-1.974,1.234-1.974s1.23.884,1.23,1.974-.549,1.973-1.23,1.973S460.3,535.884,460.3,534.794Zm8-1.108v-3.254h-1.9v9.01h.654c.688,0,1.249-.433,1.249-1.537v-2.989h1.747v-1.23Z" transform="translate(-445.648 -530.034)" fill="#1a1818"/>
        <path id="패스_7911" data-name="패스 7911" d="M475.108,530.431V542.47h.578c.69,0,1.249-.433,1.249-1.537v-10.5Zm-2.609,3.736h-1.764V535.4H472.5v7.072h.583c.688,0,1.246-.433,1.246-1.537v-10.5H472.5Zm-2.327,2.432a7.1,7.1,0,0,1-.493-2.773V532.9H471.5v-1.186h-1.818v-1.288h-1.971v1.288h-1.834V532.9h1.834v.9a7.017,7.017,0,0,1-.522,2.841,2.691,2.691,0,0,1-1.524,1.546v1.307a3.751,3.751,0,0,0,.979-.3,4.8,4.8,0,0,0,1.582-1.17,2.644,2.644,0,0,0,.412-.679,1.976,1.976,0,0,0,.409.669,4.76,4.76,0,0,0,.732.674,5.383,5.383,0,0,0,.932.528,3.537,3.537,0,0,0,1.013.278v-1.307A2.8,2.8,0,0,1,470.172,536.6Z" transform="translate(-440.916 -530.034)" fill="#1a1818"/>
        <path id="패스_7912" data-name="패스 7912" d="M484.611,536.937v-1.231h-3.165a3.323,3.323,0,0,0,.682-1.031,3.208,3.208,0,0,0-.7-3.5,3.657,3.657,0,0,0-1.1-.721,3.861,3.861,0,0,0-2.849,0,3.666,3.666,0,0,0-1.092.729,3.185,3.185,0,0,0-.945,2.252,3.253,3.253,0,0,0,.238,1.225,2.936,2.936,0,0,0,.708,1.041H473.2v1.231h2.5v1.294H474.42v1.294H481.3v3.1h.729c.653-.032,1.171-.472,1.171-1.533v-2.857h-1.083v-1.294Zm-4.408,1.294H477.61v-1.294H480.2Zm-.181-3.316a1.341,1.341,0,0,1-1.115.606,1.359,1.359,0,0,1-1.12-.585,2.375,2.375,0,0,1-.441-1.5,2.7,2.7,0,0,1,.11-.785,2.121,2.121,0,0,1,.325-.661,1.718,1.718,0,0,1,.5-.454,1.266,1.266,0,0,1,.64-.17,1.319,1.319,0,0,1,1.113.616,2.652,2.652,0,0,1-.013,2.929Z" transform="translate(-436.275 -530.185)" fill="#1a1818"/>
        <path id="패스_7913" data-name="패스 7913" d="M489.3,530.431v7.924a2.478,2.478,0,0,1-1.609.54h-2.322v-.669a3.25,3.25,0,0,0,1.55-1.067,3.023,3.023,0,0,0,.662-2.013,2.9,2.9,0,0,0-.267-1.254,3.667,3.667,0,0,0-.677-.987h1.341v-1.186h-2.566v-1.288h-1.971v1.288h-2.509V532.9h1.239a3.45,3.45,0,0,0-.662.987,3.348,3.348,0,0,0,.4,3.267,3.22,3.22,0,0,0,1.572,1.067v.669H480.7v1.255h6.465a3.13,3.13,0,0,0,2.133-.679v3h.658c.688,0,1.246-.433,1.246-1.537v-10.5Zm-4.888,6.756a1.06,1.06,0,0,1-.872-.572,2.587,2.587,0,0,1-.38-1.469,2.765,2.765,0,0,1,.391-1.556,1.089,1.089,0,0,1,.871-.595,1.056,1.056,0,0,1,.884.6,2.912,2.912,0,0,1,.372,1.551,2.48,2.48,0,0,1-.4,1.474A1.1,1.1,0,0,1,484.408,537.187Z" transform="translate(-431.657 -530.034)" fill="#1a1818"/>
        <path id="패스_7914" data-name="패스 7914" d="M459.507,530.431v3.761h-.918v-3.761H456.76v7.279a2.5,2.5,0,0,1-1.613.54h-2.293a.726.726,0,0,1-.449-.123.444.444,0,0,1-.158-.365v-5.373h3.582V531.2h-5.482v6.668a1.692,1.692,0,0,0,.42,1.15,1.352,1.352,0,0,0,1.062.485h2.816v0a3.13,3.13,0,0,0,2.115-.676v3.642h.582c.688,0,1.247-.433,1.247-1.537v-5.515h.918v7.051h.583c.688,0,1.246-.433,1.246-1.537v-10.5Z" transform="translate(-450.347 -530.034)" fill="#1a1818"/>
      </g>
    </g>
  </g>
</svg>
