<svg xmlns="http://www.w3.org/2000/svg" width="344.867" height="381.972" viewBox="0 0 344.867 381.972">
  <g id="그룹_1647" data-name="그룹 1647" transform="translate(-1689.34 -282.234)">
    <path id="패스_8088" data-name="패스 8088" d="M1869.378,922.564c-2.072-3.534-3.291-7.556,1.34-8.652s15.964-1.1,15.964-1.1-23.155-17.549-35.707-25.1-17.427-9.384-17.427-9.384-26.811-2.072-30.223-1.463-14.99,1.1-14.99,1.1-4.631.975-7.312-.487-4.387-5-4.387-5l-50.574-22.789-6.337-2.681s7.434,5,10.115,11.578,6.337,15.233,6.337,15.233l80.92,31.645,52.524,25.633s3.534-.244,8.531-.244a67.021,67.021,0,0,1,9.505.731S1871.45,926.1,1869.378,922.564Z" transform="translate(-20.447 -380.038)" fill="#ffdf61" fill-rule="evenodd"/>
    <path id="패스_8089" data-name="패스 8089" d="M2508.4,866.008s1.462,30.223,2.681,37.779,6.581,17.549-4.631,28.03-27.054,11.7-27.054,11.7,5.362,20.717,7.556,27.054a12.4,12.4,0,0,1-1.706,11.212s10.968,6.825,22.423,14.868,15.727,3.111,15.6-5.606,4.875-17.061,13.162-29.979,7.556-28.273,7.556-28.273,18.729,12.755,19.011,9.506-12.187-45.09-17.062-55.815S2537.649,876.245,2508.4,866.008Z" transform="translate(-531.632 -392.824)" fill="#ffdf61" fill-rule="evenodd"/>
    <path id="패스_8090" data-name="패스 8090" d="M2436.618,611.339c-6.521-1.63-15.355.487-18.523,7.393s-5.119,26.4-5.119,30.223,1.3,18.158.569,21.692-1.706,7.8.487,9.14,3.412,2.681,3.778,7.678,12.674,51.915,12.674,51.915a10.014,10.014,0,0,1,2.315-3.169c1.219-.853,1.584-2.316.731-6.094s-6.337-27.054-8.9-39.119-3.6-15.4-3.412-19.255-1.95-6.947-1.95-9.262-.731-24.129,2.194-35.707,5.362-13.832,8.653-14.38,7.982.609,7.982.609S2438.243,611.745,2436.618,611.339Z" transform="translate(-486.741 -221.105)" fill="#ffdf61"/>
    <g id="그룹_1646" data-name="그룹 1646" transform="translate(1689.34 282.234)">
      <path id="패스_8091" data-name="패스 8091" d="M2192.412,459.239c-8.474.266-12.039-8.641-15.13-14.98a37.458,37.458,0,0,0-12.2-14.531c-.729-.513-1.42.685-.7,1.193a34.59,34.59,0,0,1,8.5,8.444c2.208,3.159,3.656,6.7,5.371,10.133,2.8,5.589,7.276,11.338,14.157,11.122C2193.3,460.593,2193.3,459.211,2192.412,459.239Z" transform="translate(-2008.79 -381.399)" fill="#4e6a9c"/>
      <path id="패스_8092" data-name="패스 8092" d="M2241.456,469.475a26.929,26.929,0,0,1,6.146,16.5c.135,6.356-2.463,11.829-4.988,17.5-3.366,7.56-6.123,18.317,1.8,24.144.717.527,1.407-.672.7-1.193-4.479-3.292-5.147-9.4-4.068-14.492,1.17-5.526,4.261-10.414,6.167-15.687a28.356,28.356,0,0,0-4.781-27.748C2241.868,467.811,2240.9,468.793,2241.456,469.475Z" transform="translate(-2059.393 -407.415)" fill="#4e6a9c"/>
      <path id="패스_8093" data-name="패스 8093" d="M2282.222,298.975a37.191,37.191,0,0,0-32.847-16.676c-.883.054-.889,1.436,0,1.382a35.38,35.38,0,0,1,23.777,7.489,34.911,34.911,0,0,1,8.434,9.393c2.343,3.857,3.251,8.37,5.67,12.162.477.747,1.673.055,1.193-.7C2285.844,307.942,2284.89,303.073,2282.222,298.975Z" transform="translate(-2065.742 -282.234)" fill="#4e6a9c"/>
      <path id="패스_8094" data-name="패스 8094" d="M2404.514,417.286c-6.275-3.259-9.772-8.7-11.526-15.411-1.595-6.1-3.569-11.449-7.845-16.209-.6-.663-1.57.317-.977.977a28.953,28.953,0,0,1,5.656,9.186c1.31,3.5,1.811,7.237,3.167,10.719a22.786,22.786,0,0,0,10.829,11.931C2404.6,418.889,2405.3,417.7,2404.514,417.286Z" transform="translate(-2156.766 -351.686)" fill="#4e6a9c"/>
      <path id="패스_8095" data-name="패스 8095" d="M2423.941,500.586a9.648,9.648,0,0,1-7,5.969c-.868.192-.5,1.524.367,1.333a11.052,11.052,0,0,0,7.965-6.934C2425.592,500.123,2424.256,499.763,2423.941,500.586Z" transform="translate(-2178.612 -428.851)" fill="#4e6a9c"/>
      <path id="패스_8096" data-name="패스 8096" d="M2383.852,539.567a17.166,17.166,0,0,1-18.376,15.053c-.888-.058-.884,1.323,0,1.382a18.555,18.555,0,0,0,19.758-16.435C2385.343,538.686,2383.96,538.694,2383.852,539.567Z" transform="translate(-2143.867 -454.952)" fill="#4e6a9c"/>
      <path id="패스_8097" data-name="패스 8097" d="M2330.813,601.091a8.678,8.678,0,0,1-9.036,7.539c-.889-.048-.886,1.334,0,1.382a10.065,10.065,0,0,0,10.417-8.92C2332.293,600.209,2330.911,600.216,2330.813,601.091Z" transform="translate(-2114.461 -496.351)" fill="#4e6a9c"/>
      <path id="패스_8098" data-name="패스 8098" d="M2282.868,601.288a.691.691,0,0,0-1.332-.367,19.406,19.406,0,0,0-.576,7.207c.326,2.79,1.872,6-.105,8.513-.543.692.428,1.676.977.977a6.783,6.783,0,0,0,1.273-5.466C2282.568,608.324,2281.864,605.149,2282.868,601.288Z" transform="translate(-2087.264 -496.349)" fill="#4e6a9c"/>
      <path id="패스_8099" data-name="패스 8099" d="M2262.766,655.832l-1.3-.642a.709.709,0,0,0-.945.248.7.7,0,0,0,.248.945l1.3.641a.709.709,0,0,0,.946-.248A.7.7,0,0,0,2262.766,655.832Z" transform="translate(-2073.627 -533.141)" fill="#4e6a9c"/>
      <path id="패스_8100" data-name="패스 8100" d="M2131.891,428.655a8.063,8.063,0,0,1-7.839,2,.692.692,0,0,0-.367,1.333,9.5,9.5,0,0,0,9.183-2.359C2133.51,429.014,2132.532,428.038,2131.891,428.655Z" transform="translate(-1981.283 -380.629)" fill="#4e6a9c"/>
      <path id="패스_8101" data-name="패스 8101" d="M2164.471,404.912c-.39-.8-1.582-.1-1.193.7a18.738,18.738,0,0,0,2.993,4.393c.6.659,1.574-.32.977-.977A17.469,17.469,0,0,1,2164.471,404.912Z" transform="translate(-2008.202 -364.547)" fill="#4e6a9c"/>
      <path id="패스_8102" data-name="패스 8102" d="M2174.334,392.3c-.328-.815-1.665-.459-1.332.367a13.952,13.952,0,0,0,2.385,3.937c.581.675,1.555-.305.978-.977A11.934,11.934,0,0,1,2174.334,392.3Z" transform="translate(-2014.762 -355.99)" fill="#4e6a9c"/>
      <path id="패스_8103" data-name="패스 8103" d="M2183.06,367.151a.691.691,0,0,0-.977.977l1.949,1.951a.691.691,0,0,0,.977-.977Z" transform="translate(-2020.772 -339.238)" fill="#4e6a9c"/>
      <path id="패스_8104" data-name="패스 8104" d="M2157.643,288.705a67.781,67.781,0,0,0-28.774,34.078c-.318.831,1.017,1.191,1.333.367a66.276,66.276,0,0,1,28.139-33.252A.692.692,0,0,0,2157.643,288.705Z" transform="translate(-1985.068 -286.521)" fill="#4e6a9c"/>
      <path id="패스_8105" data-name="패스 8105" d="M2121.364,411.319v4.875a.691.691,0,0,0,1.381,0v-4.875A.691.691,0,0,0,2121.364,411.319Z" transform="translate(-1980.05 -368.647)" fill="#4e6a9c"/>
      <path id="패스_8106" data-name="패스 8106" d="M2240.236,363.369c-.635-.623-1.613.354-.977.977,6.856,6.716,2.769,17.915,8.273,25.436.52.71,1.72.022,1.193-.7C2243.148,381.463,2247.3,370.293,2240.236,363.369Z" transform="translate(-2059.244 -336.696)" fill="#4e6a9c"/>
      <path id="패스_8107" data-name="패스 8107" d="M2270.023,431.916c-.282-.838-1.617-.479-1.332.368l1.54,4.578c.282.838,1.617.479,1.333-.367Z" transform="translate(-2079.16 -382.635)" fill="#4e6a9c"/>
      <path id="패스_8108" data-name="패스 8108" d="M2303.552,511.672c.066-.887-1.316-.883-1.382,0a23.848,23.848,0,0,0,2.83,13.334c2.574,4.666,8.273,8.184,8.193,13.958a.691.691,0,0,0,1.381,0c.068-4.837-3.433-7.962-6.236-11.465A22.45,22.45,0,0,1,2303.552,511.672Z" transform="translate(-2101.668 -436.177)" fill="#4e6a9c"/>
      <path id="패스_8109" data-name="패스 8109" d="M2320.935,591.357a11.738,11.738,0,0,1,.349,3.7c-.055.888,1.327.885,1.382,0a12.964,12.964,0,0,0-.4-4.07A.691.691,0,0,0,2320.935,591.357Z" transform="translate(-2114.326 -489.666)" fill="#4e6a9c"/>
      <path id="패스_8110" data-name="패스 8110" d="M2366.216,487.079c-6-3.855-8.958-10.523-11.669-16.841-.35-.815-1.541-.112-1.193.7,2.822,6.574,5.94,13.334,12.165,17.336C2366.269,488.755,2366.962,487.559,2366.216,487.079Z" transform="translate(-2136.115 -408.499)" fill="#4e6a9c"/>
      <path id="패스_8111" data-name="패스 8111" d="M2343.36,474.681c-.149-.875-1.48-.5-1.332.367a15.876,15.876,0,0,0,2.595,6.384c.5.727,1.7.037,1.193-.7A14.909,14.909,0,0,1,2343.36,474.681Z" transform="translate(-2128.528 -411.396)" fill="#4e6a9c"/>
      <path id="패스_8112" data-name="패스 8112" d="M2312.266,366.113c-.664-.587-1.645.387-.977.977a23.981,23.981,0,0,1,7.51,12.4c.212.863,1.545.5,1.332-.367A25.28,25.28,0,0,0,2312.266,366.113Z" transform="translate(-2107.701 -338.555)" fill="#4e6a9c"/>
      <path id="패스_8113" data-name="패스 8113" d="M2294.323,375.876c-.743-.493-1.437.7-.7,1.193a8.209,8.209,0,0,1,2.7,2.983c.423.783,1.616.086,1.193-.7A9.663,9.663,0,0,0,2294.323,375.876Z" transform="translate(-2095.753 -345.168)" fill="#4e6a9c"/>
      <path id="패스_8114" data-name="패스 8114" d="M2198.127,435.98a.692.692,0,0,0-1.333.367,26.908,26.908,0,0,0,6.774,12.259c.617.643,1.594-.335.977-.977A25.464,25.464,0,0,1,2198.127,435.98Z" transform="translate(-2030.792 -385.359)" fill="#4e6a9c"/>
      <path id="패스_8115" data-name="패스 8115" d="M2242,308.842a32.2,32.2,0,0,0-15.641,1.253c-.838.283-.479,1.617.368,1.332a30.736,30.736,0,0,1,14.906-1.253C2242.5,310.316,2242.874,308.985,2242,308.842Z" transform="translate(-2050.379 -299.843)" fill="#4e6a9c"/>
      <path id="패스_8116" data-name="패스 8116" d="M2149.973,357.087l-4.584,5.5c-.566.678.407,1.661.977.977l4.584-5.5C2151.516,357.386,2150.543,356.4,2149.973,357.087Z" transform="translate(-1996.102 -332.447)" fill="#4e6a9c"/>
      <path id="패스_8117" data-name="패스 8117" d="M2137.69,460.247a17.2,17.2,0,0,1-5.024-5.456c-2.418-4.164-3.245-8.987-4.06-13.667-.152-.874-1.484-.5-1.333.367.837,4.8,1.719,9.726,4.2,14a17.81,17.81,0,0,0,3.86,4.7c1.855,1.565,4.034,2.634,5.562,4.57.551.7,1.523-.287.977-.977A18.943,18.943,0,0,0,2137.69,460.247Z" transform="translate(-1984.019 -388.815)" fill="#4e6a9c"/>
      <path id="패스_8118" data-name="패스 8118" d="M2175.956,546.648a5.62,5.62,0,0,1-3.694.433c-1.952-.638-1.072-2.05-.738-3.387a13.234,13.234,0,0,0,.133-5.458c-.147-.875-1.479-.5-1.332.367a11.72,11.72,0,0,1-.513,5.948c-.331.938-.86,1.831-.158,2.738,1.417,1.831,4.84,1.44,6.669.691C2177.135,547.648,2176.78,546.31,2175.956,546.648Z" transform="translate(-2012.312 -454.163)" fill="#4e6a9c"/>
      <path id="패스_8119" data-name="패스 8119" d="M2187.46,495.755a8.976,8.976,0,0,0-6,.794c-.794.4-.1,1.594.7,1.193a7.421,7.421,0,0,1,4.935-.655C2187.961,497.267,2188.332,495.935,2187.46,495.755Z" transform="translate(-2020.254 -425.779)" fill="#4e6a9c"/>
      <path id="패스_8120" data-name="패스 8120" d="M2199.885,510.947a5.274,5.274,0,0,1-6.52-1.246c-.582-.674-1.556.307-.977.977a6.666,6.666,0,0,0,8.194,1.462C2201.366,511.719,2200.669,510.525,2199.885,510.947Z" transform="translate(-2027.724 -435.145)" fill="#4e6a9c"/>
      <path id="패스_8121" data-name="패스 8121" d="M2208.67,520.018a3.185,3.185,0,0,1-2.107,1.1c-.879.078-.887,1.46,0,1.382a4.6,4.6,0,0,0,3.084-1.507C2210.237,520.333,2209.263,519.353,2208.67,520.018Z" transform="translate(-2036.936 -442.09)" fill="#4e6a9c"/>
      <path id="패스_8122" data-name="패스 8122" d="M2208.221,584.159A27.2,27.2,0,0,1,2192.966,572c-.432-.777-1.626-.081-1.193.7,3.441,6.2,9.446,10.549,16.081,12.794C2208.7,585.777,2209.06,584.443,2208.221,584.159Z" transform="translate(-2027.366 -476.99)" fill="#4e6a9c"/>
      <path id="패스_8123" data-name="패스 8123" d="M2209.018,580.9a7.559,7.559,0,0,1-7.176.23c-.8-.392-1.5.8-.7,1.193a9.007,9.007,0,0,0,8.571-.23A.691.691,0,0,0,2209.018,580.9Z" transform="translate(-2033.498 -483.14)" fill="#4e6a9c"/>
      <path id="패스_8124" data-name="패스 8124" d="M2422.379,575.284a38.733,38.733,0,0,1-11.028-7.208c-.65-.605-1.629.37-.977.977a39.809,39.809,0,0,0,11.307,7.423C2422.489,576.829,2423.193,575.638,2422.379,575.284Z" transform="translate(-2174.382 -474.45)" fill="#4e6a9c"/>
      <path id="패스_8125" data-name="패스 8125" d="M2458.924,591.01c-.889-.037-.887,1.345,0,1.382,3.019.127,5.163,2.183,6.21,4.911.315.822,1.652.465,1.332-.367C2465.188,593.6,2462.608,591.166,2458.924,591.01Z" transform="translate(-2206.748 -490.01)" fill="#4e6a9c"/>
      <path id="패스_8126" data-name="패스 8126" d="M2502.941,624.657c-3.062-3.749-7.687-5.875-12.208-7.292-.851-.267-1.214,1.067-.367,1.332,4.376,1.373,8.937,3.447,11.781,7.2,3.014,3.974,4.364,9.566,6.157,14.179.319.82,1.655.463,1.333-.367C2507.738,634.823,2506.307,628.778,2502.941,624.657Z" transform="translate(-2228.029 -507.721)" fill="#4e6a9c"/>
      <path id="패스_8127" data-name="패스 8127" d="M2537.186,695.558c.411-4.492.541-9.358-2.186-13.207-3.122-4.405-7.8-8.051-11.648-11.814-.637-.622-1.615.354-.978.977,3.569,3.487,7.564,6.832,10.762,10.667,3.6,4.315,3.05,10.01,2.479,15.231-.554,5.06-1.425,10.142-1.059,15.248a29.94,29.94,0,0,0,1.319,6.775c.879,2.831,1.917,5.6,1.117,8.581a.692.692,0,0,0,1.333.367c1.385-5.154-1.906-10.169-2.354-15.268C2535.453,707.24,2536.651,701.389,2537.186,695.558Z" transform="translate(-2249.752 -543.39)" fill="#4e6a9c"/>
      <path id="패스_8128" data-name="패스 8128" d="M2486.813,844.994c-5.816-1.035-11.727-2.092-17.659-1.707-5.828.379-11.371,2.933-17.25,2.557-.888-.057-.885,1.325,0,1.382,5.6.358,10.8-1.969,16.308-2.484,6.118-.572,12.232.516,18.235,1.584C2487.316,846.482,2487.689,845.15,2486.813,844.994Z" transform="translate(-2202.025 -659.714)" fill="#4e6a9c"/>
      <path id="패스_8129" data-name="패스 8129" d="M2444.937,760.184c-.977,3.491-2,6.973-2.93,10.477-.63,2.369-.964,4.59.043,6.893.355.813,1.546.11,1.193-.7-1.193-2.729.093-5.824.841-8.5l2.185-7.807A.692.692,0,0,0,2444.937,760.184Z" transform="translate(-2195.411 -603.52)" fill="#4e6a9c"/>
      <path id="패스_8130" data-name="패스 8130" d="M2369.936,593.977a25.564,25.564,0,0,1-5.755,4.937,37.345,37.345,0,0,1-6.443,2.684,88.821,88.821,0,0,1-13.287,3.4c-.874.155-.5,1.487.367,1.333a88.326,88.326,0,0,0,14.957-3.989,27.513,27.513,0,0,0,11.139-7.384C2371.524,594.308,2370.549,593.33,2369.936,593.977Z" transform="translate(-2129.83 -491.864)" fill="#4e6a9c"/>
      <path id="패스_8131" data-name="패스 8131" d="M2181.6,614.275c-6.724,2.662-11.858,7.9-16.661,13.13-2.016,2.2-3.821,4.54-3.734,7.67.1,3.7,2.292,6.967,2.126,10.716-.039.889,1.343.887,1.382,0,.13-2.951-1.073-5.519-1.752-8.33-1-4.133.756-6.72,3.483-9.647,4.5-4.828,9.273-9.733,15.523-12.206C2182.784,615.284,2182.427,613.948,2181.6,614.275Z" transform="translate(-2006.857 -505.631)" fill="#4e6a9c"/>
      <path id="패스_8132" data-name="패스 8132" d="M2153.413,715.379a.691.691,0,0,0-1.381,0c.055,12.988-4.783,25.21-6.569,37.946a49.636,49.636,0,0,0,.24,17.058c1.366,6.553,4.184,12.728,4.85,19.433.087.877,1.469.886,1.382,0-.608-6.12-2.917-11.784-4.412-17.7a49.285,49.285,0,0,1-.476-20.087C2149.022,739.768,2153.467,727.922,2153.413,715.379Z" transform="translate(-1995.85 -573.25)" fill="#4e6a9c"/>
      <path id="패스_8133" data-name="패스 8133" d="M2369.8,699.362a47.488,47.488,0,0,0-13.523,1.275c-.864.208-.5,1.541.368,1.333a46.133,46.133,0,0,1,13.155-1.226C2370.691,700.788,2370.688,699.406,2369.8,699.362Z" transform="translate(-2137.793 -562.882)" fill="#4e6a9c"/>
      <path id="패스_8134" data-name="패스 8134" d="M2377.159,711.7a12.422,12.422,0,0,1-5.845,4.073c-.841.276-.481,1.611.367,1.332a13.7,13.7,0,0,0,6.455-4.429C2378.689,711.99,2377.718,711.007,2377.159,711.7Z" transform="translate(-2147.921 -571.063)" fill="#4e6a9c"/>
      <path id="패스_8135" data-name="패스 8135" d="M2370.761,753.857a20.951,20.951,0,0,1-12.473,11.789c-.834.292-.475,1.628.367,1.332a22.449,22.449,0,0,0,13.438-12.754C2372.433,753.4,2371.1,753.046,2370.761,753.857Z" transform="translate(-2139.159 -599.283)" fill="#4e6a9c"/>
      <path id="패스_8136" data-name="패스 8136" d="M2453.025,614.872c-2.551-.264-5.061-1.515-7.66-1.141a8.1,8.1,0,0,0-4.987,2.99c-3.453,4.175-3.921,10.889-4.712,16.036a135.279,135.279,0,0,0-.519,37.047c.107.871,1.49.882,1.382,0a134.772,134.772,0,0,1-.127-32.282c.623-5.271,1.311-10.871,2.979-15.93.9-2.723,2.653-5.7,5.676-6.4,2.6-.606,5.387.8,7.968,1.067C2453.909,616.345,2453.9,614.963,2453.025,614.872Z" transform="translate(-2190.505 -505.253)" fill="#4e6a9c"/>
      <path id="패스_8137" data-name="패스 8137" d="M2429.586,606.958c-4.925.238-10.487.655-14,4.573-3.739,4.165-4.5,10.643-5.453,15.921a140.7,140.7,0,0,0-1.256,41.088c.1.873,1.484.883,1.382,0a139.717,139.717,0,0,1,.594-37.037c.816-5.354,1.5-11.482,3.965-16.375,2.9-5.761,8.968-6.508,14.772-6.788C2430.471,608.3,2430.476,606.915,2429.586,606.958Z" transform="translate(-2172.881 -500.741)" fill="#4e6a9c"/>
      <path id="패스_8138" data-name="패스 8138" d="M2417.772,786.3c-2.611.424-6.247.365-8.4,2.058-2.1,1.648-2.461,4.5-2.258,6.98.156,1.917.169,4,2.178,4.815,2.467,1,5.738.423,8.146-.406.836-.288.477-1.623-.367-1.333a13.141,13.141,0,0,1-5.351.779c-3.285-.256-3.4-2.8-3.277-5.5.131-2.812,1.435-4.622,4.258-5.174,1.8-.352,3.63-.6,5.44-.89C2419.015,787.495,2418.643,786.163,2417.772,786.3Z" transform="translate(-2172.298 -621.418)" fill="#4e6a9c"/>
      <path id="패스_8139" data-name="패스 8139" d="M2421.732,828.235c-.139-.876-1.471-.5-1.333.367a416.249,416.249,0,0,0,13.692,58.537c.264.846,1.6.485,1.332-.367A416.178,416.178,0,0,1,2421.732,828.235Z" transform="translate(-2181.265 -649.304)" fill="#4e6a9c"/>
      <path id="패스_8140" data-name="패스 8140" d="M2454.386,863.294c-.562-.69-1.534.293-.977.977,8.874,10.906,6.411,26.055,8.963,38.979.172.871,1.5.5,1.333-.367C2461.085,889.615,2463.5,874.5,2454.386,863.294Z" transform="translate(-2203.373 -673.073)" fill="#4e6a9c"/>
      <path id="패스_8141" data-name="패스 8141" d="M2532.392,859c-.124-.877-1.456-.5-1.333.367q3.2,22.564,5.1,45.284c.577,6.938.541,13.333-4.123,18.94a27.567,27.567,0,0,1-14.834,8.84c-.864.208-.5,1.541.367,1.332a29.193,29.193,0,0,0,14.764-8.413c4.374-4.79,5.873-10.511,5.5-16.9C2536.862,891.923,2534.712,875.38,2532.392,859Z" transform="translate(-2246.078 -670.004)" fill="#4e6a9c"/>
      <path id="패스_8142" data-name="패스 8142" d="M2418.016,979.484a20.119,20.119,0,0,0-13.181-1.889c-5.011.981-8.445,3.814-11.973,7.3a13.726,13.726,0,0,1-7.638,4.244,60.41,60.41,0,0,1-10,.313q-10.309-.073-20.587-.939c-.887-.073-.882,1.309,0,1.382,6.371.526,12.757.846,19.149.926,5.031.063,11.185.788,15.821-1.623,4.411-2.293,6.913-6.912,11.548-8.987a18.707,18.707,0,0,1,16.163.471C2418.107,981.085,2418.807,979.893,2418.016,979.484Z" transform="translate(-2136.575 -749.889)" fill="#4e6a9c"/>
      <path id="패스_8143" data-name="패스 8143" d="M2421.905,1087.819a97.69,97.69,0,0,1-20.446,3.286,73.548,73.548,0,0,1-9.729-.31,24.38,24.38,0,0,0-4.619-.134c-1.836.177-3.56.9-5.22-.292-.723-.52-1.413.678-.7,1.193,2.338,1.682,5.13.387,7.763.409,3.872.033,7.684.652,11.576.547a97.931,97.931,0,0,0,21.74-3.366A.692.692,0,0,0,2421.905,1087.819Z" transform="translate(-2154.687 -824.298)" fill="#4e6a9c"/>
      <path id="패스_8144" data-name="패스 8144" d="M2318.819,1088.755c-5.654,3.607-11.36,7.137-17.15,10.522-5.693,3.328-11.731,4.387-17.4.314-.723-.52-1.414.678-.7,1.193a15.34,15.34,0,0,0,15.633,1.417c7.065-3.34,13.731-8.055,20.31-12.252C2320.264,1089.472,2319.572,1088.275,2318.819,1088.755Z" transform="translate(-2088.999 -824.87)" fill="#4e6a9c"/>
      <path id="패스_8145" data-name="패스 8145" d="M2266.369,1011.741c-6.829-.542-12.95-.259-19.042,3.058-2.572,1.4-5.025,3.024-7.671,4.287-3.454,1.649-6.634,1.818-10.387,2.02-.885.047-.89,1.429,0,1.382,3-.161,5.751-.105,8.616-1.156a48.343,48.343,0,0,0,7.584-3.882,34.173,34.173,0,0,1,8.4-3.922c4-1.045,8.425-.728,12.506-.4C2267.256,1013.193,2267.251,1011.81,2266.369,1011.741Z" transform="translate(-2052.212 -772.975)" fill="#4e6a9c"/>
      <path id="패스_8146" data-name="패스 8146" d="M1953.215,932.3c-18.859-1.911-38.369-1.29-56.716,3.777a.692.692,0,0,0,.367,1.333c18.232-5.035,37.607-5.627,56.349-3.727C1954.1,933.776,1954.092,932.393,1953.215,932.3Z" transform="translate(-1828.409 -718.998)" fill="#4e6a9c"/>
      <path id="패스_8147" data-name="패스 8147" d="M2079.222,939.074c-.778-.432-1.475.76-.7,1.193a339.433,339.433,0,0,1,51.5,35.193c.68.563,1.663-.409.977-.977A341.329,341.329,0,0,0,2079.222,939.074Z" transform="translate(-1950.995 -724.161)" fill="#4e6a9c"/>
      <path id="패스_8148" data-name="패스 8148" d="M1987.883,997.867c-30.8-16.426-61.155-33.626-90.858-51.975-.759-.469-1.453.726-.7,1.193,29.7,18.349,60.054,35.549,90.858,51.975C1987.97,999.479,1988.669,998.286,1987.883,997.867Z" transform="translate(-1828.403 -728.74)" fill="#4e6a9c"/>
      <path id="패스_8149" data-name="패스 8149" d="M2200.935,1106.258a101.947,101.947,0,0,0-19.938-1.024c-.884.052-.89,1.434,0,1.382a100.1,100.1,0,0,1,19.571.974C2201.438,1107.712,2201.814,1106.381,2200.935,1106.258Z" transform="translate(-2019.73 -835.944)" fill="#4e6a9c"/>
      <path id="패스_8150" data-name="패스 8150" d="M1789.493,920.537a46.648,46.648,0,0,0-24.435,2.18c-.827.305-.47,1.641.367,1.332a45.289,45.289,0,0,1,23.7-2.18,50.609,50.609,0,0,1,9.619,2.845c3.11,1.23,6.441,2.591,9.015,4.78.674.573,1.656-.4.977-.977C1803.71,924.243,1795.872,921.688,1789.493,920.537Z" transform="translate(-1739.975 -711.258)" fill="#4e6a9c"/>
      <path id="패스_8151" data-name="패스 8151" d="M1856.022,964.316l-45.629-17.134c-14.852-5.577-30.036-10.7-44.04-18.245-.783-.422-1.481.771-.7,1.193,13.828,7.447,28.8,12.538,43.466,18.045l46.532,17.474C1856.489,965.961,1856.849,964.626,1856.022,964.316Z" transform="translate(-1740.462 -717.342)" fill="#4e6a9c"/>
      <path id="패스_8152" data-name="패스 8152" d="M1705.4,843.3a47.024,47.024,0,0,0-15.022-12.753.691.691,0,0,0-.7,1.193,45.039,45.039,0,0,1,15,12.91c3.875,5.511,6.625,11.759,9.048,18.014.318.821,1.654.464,1.333-.367C1712.5,855.7,1709.615,849.037,1705.4,843.3Z" transform="translate(-1689.34 -651.135)" fill="#4e6a9c"/>
      <path id="패스_8153" data-name="패스 8153" d="M1758.393,860.063q-33.387-16.3-68.1-29.631c-.831-.319-1.19,1.017-.367,1.333q34.516,13.256,67.774,29.492C1758.491,861.644,1759.193,860.453,1758.393,860.063Z" transform="translate(-1689.418 -651.085)" fill="#4e6a9c"/>
      <path id="패스_8154" data-name="패스 8154" d="M2151.768,1124.664q.482-12.9.965-25.791c.033-.889-1.349-.888-1.382,0q-.5,13.382-1,26.764c-.307,8.218-.659,16.5,1.483,24.519a.692.692,0,0,0,1.333-.367C2150.97,1141.572,2151.453,1133.073,2151.768,1124.664Z" transform="translate(-1999.4 -831.305)" fill="#4e6a9c"/>
      <path id="패스_8155" data-name="패스 8155" d="M2477.352,1115.664q-1.878-7.044-3.755-14.09a.692.692,0,0,0-1.333.367c2.318,8.7,4.9,17.368,6.949,26.131,1.061,4.526.144,7.909-2.429,11.655-1.74,2.533-3.546,4.947-4.188,8.013-.182.868,1.15,1.239,1.333.367.765-3.654,3.318-6.321,5.194-9.425a12.747,12.747,0,0,0,1.789-9.251C2480.113,1124.8,2478.562,1120.2,2477.352,1115.664Z" transform="translate(-2216.155 -833.241)" fill="#4e6a9c"/>
      <path id="패스_8156" data-name="패스 8156" d="M2493.956,1213.988c-.114-.869-1.5-.88-1.382,0q1.645,12.493,3.29,24.987c.982,7.466,3.409,16.42-.124,23.526-.394.794.8,1.495,1.193.7,3.446-6.932,1.527-15,.565-22.3Z" transform="translate(-2229.834 -908.773)" fill="#4e6a9c"/>
      <path id="패스_8157" data-name="패스 8157" d="M2468.183,1331.335a74.027,74.027,0,0,1-14.105-13.231c-.565-.688-1.538.295-.977.977a75.384,75.384,0,0,0,14.385,13.447C2468.209,1333.048,2468.9,1331.85,2468.183,1331.335Z" transform="translate(-2203.164 -979.118)" fill="#4e6a9c"/>
      <path id="패스_8158" data-name="패스 8158" d="M2435.774,1319.865c-2.79,2.529-2.9,6.4-3.23,9.907-.457,4.9-.173,10.751-3,14.978-.5.741.7,1.434,1.193.7,2.217-3.311,2.408-7.27,2.767-11.122.391-4.193-.142-10.408,3.25-13.483C2437.411,1320.243,2436.432,1319.269,2435.774,1319.865Z" transform="translate(-2187.344 -980.334)" fill="#4e6a9c"/>
      <path id="패스_8159" data-name="패스 8159" d="M2239.4,1302.673c-6.322-5.041-14.342-6.006-22.065-7.3a144.14,144.14,0,0,1-26.943-6.921c-16.2-6.1-31.129-16.734-39.08-32.473-.4-.794-1.594-.095-1.193.7,12.611,24.96,40.41,35.538,66.413,39.955,7.552,1.282,15.687,2.076,21.891,7.022C2239.116,1304.2,2240.1,1303.227,2239.4,1302.673Z" transform="translate(-1999.348 -937.232)" fill="#4e6a9c"/>
      <path id="패스_8160" data-name="패스 8160" d="M2163.953,1285.327a.678.678,0,0,0,.126.381c-.065-.718-.133-1.437-.191-2.156Q2163.921,1284.44,2163.953,1285.327Z" transform="translate(-2008.666 -956.025)" fill="#4e6a9c"/>
      <path id="패스_8161" data-name="패스 8161" d="M2163.887,1282.185h1.382C2165.2,1281.31,2163.855,1281.285,2163.887,1282.185Z" transform="translate(-2008.664 -954.657)" fill="#4e6a9c"/>
      <path id="패스_8162" data-name="패스 8162" d="M2165.335,1285.327q-.033-.887-.065-1.774h-1.381c.058.719.126,1.438.191,2.156A.69.69,0,0,0,2165.335,1285.327Z" transform="translate(-2008.666 -956.025)" fill="#4e6a9c"/>
      <path id="패스_8163" data-name="패스 8163" d="M2165.728,1285.327a.69.69,0,0,1-1.255.381,240.372,240.372,0,0,0,10.65,52.288h1.45a238.837,238.837,0,0,1-10.91-54.444Q2165.7,1284.44,2165.728,1285.327Z" transform="translate(-2009.058 -956.025)" fill="#4e6a9c"/>
      <path id="패스_8164" data-name="패스 8164" d="M2495.229,1361.862c-.008-.349-.013-.7-.023-1.047h-1.381q.018.438.036.876A.7.7,0,0,0,2495.229,1361.862Z" transform="translate(-2230.681 -1008.015)" fill="#4e6a9c"/>
      <path id="패스_8165" data-name="패스 8165" d="M2491.415,1361.862a.7.7,0,0,1-1.369-.172q-.018-.437-.035-.876c.156,5.579.058,11.16-.339,16.728-.284,3.978-.349,8.462-1.515,12.444h1.4a61.66,61.66,0,0,0,1.346-10.537A167.581,167.581,0,0,0,2491.415,1361.862Z" transform="translate(-2226.867 -1008.015)" fill="#4e6a9c"/>
      <path id="패스_8166" data-name="패스 8166" d="M2493.824,1359.443h1.382C2495.17,1358.558,2493.8,1358.551,2493.824,1359.443Z" transform="translate(-2230.68 -1006.643)" fill="#4e6a9c"/>
      <path id="패스_8167" data-name="패스 8167" d="M2498.085,1361.69q-.018-.437-.036-.876c.01.349.015.7.023,1.047A.771.771,0,0,0,2498.085,1361.69Z" transform="translate(-2233.523 -1008.015)" fill="#4e6a9c"/>
      <path id="패스_8168" data-name="패스 8168" d="M2450.113,1329.241c-.111-.87-1.494-.881-1.382,0a135.458,135.458,0,0,1-.661,39.058h1.393A136.391,136.391,0,0,0,2450.113,1329.241Z" transform="translate(-2199.892 -986.327)" fill="#4e6a9c"/>
      <path id="패스_8169" data-name="패스 8169" d="M2234.194,1379.14q-4.462-8.841-8.95-17.669c-.4-.793-1.594-.095-1.193.7q4.476,8.834,8.95,17.669a12.81,12.81,0,0,1,1.612,4.972c.112,1.421.035,2.843.2,4.264.043.377.1.749.164,1.12h1.47a27.214,27.214,0,0,1-.4-4.1A15.347,15.347,0,0,0,2234.194,1379.14Z" transform="translate(-2049.094 -1008.221)" fill="#4e6a9c"/>
      <path id="패스_8170" data-name="패스 8170" d="M2417.034,1110.773c.033-.889-1.349-.888-1.382,0a47.31,47.31,0,0,0,4.144,21.182c.362.81,1.554.108,1.193-.7A45.781,45.781,0,0,1,2417.034,1110.773Z" transform="translate(-2178.056 -839.312)" fill="#4e6a9c"/>
      <path id="패스_8171" data-name="패스 8171" d="M2423.333,986.924a14.881,14.881,0,0,0-1.894,7.577.691.691,0,0,0,1.382,0,13.418,13.418,0,0,1,1.705-6.88C2424.958,986.843,2423.764,986.145,2423.333,986.924Z" transform="translate(-2181.97 -756.194)" fill="#4e6a9c"/>
      <path id="패스_8172" data-name="패스 8172" d="M2436.418,1160.353c-.3-.831-1.633-.473-1.332.367q3.173,8.853,6.051,17.807c.271.843,1.606.482,1.333-.367Q2439.591,1169.206,2436.418,1160.353Z" transform="translate(-2191.126 -872.806)" fill="#4e6a9c"/>
      <path id="패스_8173" data-name="패스 8173" d="M2396.016,1261.273a43.543,43.543,0,0,1-13.053-11.789c-.521-.709-1.72-.021-1.193.7a45.229,45.229,0,0,0,13.549,12.284A.691.691,0,0,0,2396.016,1261.273Z" transform="translate(-2155.19 -932.899)" fill="#4e6a9c"/>
      <path id="패스_8174" data-name="패스 8174" d="M2443.731,818.2c-.2-.865-1.536-.5-1.333.367q5.049,21.543,9.053,43.309c.161.873,1.492.5,1.333-.367Q2448.781,839.749,2443.731,818.2Z" transform="translate(-2196.062 -642.556)" fill="#4e6a9c"/>
      <path id="패스_8175" data-name="패스 8175" d="M2618.2,927.513l-4.339-14.456c-2.778-9.255-5.521-18.52-8.335-27.763-2.191-7.2-5.11-13.432-12.352-16.608-4.482-1.966-9.28-3.3-13.915-4.861l-16.095-5.406c-.845-.284-1.207,1.05-.368,1.333q11.956,4.016,23.913,8.032c3.766,1.266,7.786,2.47,10.816,5.165,2.711,2.412,4.315,5.763,5.51,9.127,2.616,7.365,4.587,15,6.834,22.488l7.28,24.25q1.05,3.5,2.1,7c.233.774,1.114,2.47.927,3.255q.043.228.086.457l-1.4.3a6.678,6.678,0,0,1-1.63-1.031l-12.224-7.731c-.754-.477-1.448.719-.7,1.193l12.224,7.731c1.473.932,4.775,3.035,5.084-.192.164-1.709-.84-3.673-1.321-5.278Z" transform="translate(-2276.768 -669.925)" fill="#4e6a9c"/>
      <path id="패스_8176" data-name="패스 8176" d="M2534.48,1237.457c2,5.587-6.4,6.019-9.79,5.335-3.635-.733-6.723-2.8-9.68-4.934a138.71,138.71,0,0,0-18.99-11.716c-.793-.4-1.494.794-.7,1.193a124.412,124.412,0,0,1,13.268,7.677c3.976,2.651,7.671,5.961,12.064,7.92,3.357,1.5,7.539,2.169,11.106,1.017,2.941-.95,5.18-3.71,4.052-6.861C2535.515,1236.258,2534.179,1236.617,2534.48,1237.457Z" transform="translate(-2231.452 -917.339)" fill="#4e6a9c"/>
      <path id="패스_8177" data-name="패스 8177" d="M2639.561,1049.025l-3.477,17.214c-1.164,5.762-1.933,11.894-4.4,17.282-2.241,4.9-5.671,9.161-8.042,14.007a65.176,65.176,0,0,0-5.158,15.02c-.186.867,1.146,1.238,1.332.367a63.491,63.491,0,0,1,5.609-15.861c2.482-4.81,5.967-9.092,8.01-14.125s2.812-10.561,3.883-15.858l3.571-17.68C2641.068,1048.524,2639.737,1048.153,2639.561,1049.025Z" transform="translate(-2314.554 -797.876)" fill="#4e6a9c"/>
      <path id="패스_8178" data-name="패스 8178" d="M2643.791,949.951c-.616,1.84-5.252,12.439-8.069,9.455-.587-.622-.8-2.539-1.012-3.364q-.425-1.69-.7-3.415a44.929,44.929,0,0,1-.536-6.758c-.068-9.155,2.277-18.137,5.084-26.783.275-.848-1.058-1.211-1.332-.367-3.52,10.842-6.329,22.393-4.612,33.846.289,1.929,1.175,10.945,4.957,9.1,1.718-.839,3.158-3.048,4.234-4.594a26.351,26.351,0,0,0,3.319-6.751C2645.406,949.474,2644.072,949.111,2643.791,949.951Z" transform="translate(-2323.723 -710.205)" fill="#4e6a9c"/>
      <path id="패스_8179" data-name="패스 8179" d="M2589.6,1058.537c-3.167,9.163-5.37,18.537-8.179,27.794a32.377,32.377,0,0,1-2.972,6.8,13.337,13.337,0,0,0-2.029,4.8c-.319,2.48.93,5.119,3.507,5.642.868.176,1.24-1.156.367-1.333-5.489-1.112-.724-8,.561-10.588a49.649,49.649,0,0,0,3.225-9.928q2.952-11.548,6.853-22.817C2591.228,1058.063,2589.894,1057.7,2589.6,1058.537Z" transform="translate(-2286.229 -804.292)" fill="#4e6a9c"/>
      <path id="패스_8180" data-name="패스 8180" d="M2603.693,930.664a123.14,123.14,0,0,0-12.98,27.477c-.279.846,1.055,1.21,1.332.367a121.647,121.647,0,0,1,12.842-27.147C2605.364,930.608,2604.168,929.914,2603.693,930.664Z" transform="translate(-2295.851 -718.348)" fill="#4e6a9c"/>
      <path id="패스_8181" data-name="패스 8181" d="M2521.257,1075.038c-.312,2.863-1.771,5.307-3.158,7.766q-2.117,3.751-4.238,7.5c-2.576,4.56-4.843,10.214-8.689,13.856-.647.613.331,1.589.977.977a25.45,25.45,0,0,0,4.432-6.217q2.474-4.375,4.943-8.752c2.637-4.667,6.518-9.666,7.114-15.131C2522.735,1074.155,2521.352,1074.162,2521.257,1075.038Z" transform="translate(-2238.173 -815.271)" fill="#4e6a9c"/>
      <path id="패스_8182" data-name="패스 8182" d="M2500.814,1092.551c1.386,2.695,5.721,12.852-.859,11.726-.87-.149-1.243,1.183-.367,1.333,2.262.387,5.083.335,5.453-2.5.479-3.663-1.4-8.087-3.033-11.259C2501.6,1091.062,2500.407,1091.76,2500.814,1092.551Z" transform="translate(-2234.222 -826.796)" fill="#4e6a9c"/>
      <path id="패스_8183" data-name="패스 8183" d="M2489.882,1110.984a12.488,12.488,0,0,1,.679,3.381c.051.884,1.433.89,1.382,0a13.907,13.907,0,0,0-.729-3.749C2490.926,1109.781,2489.591,1110.141,2489.882,1110.984Z" transform="translate(-2228 -839.337)" fill="#4e6a9c"/>
      <path id="패스_8184" data-name="패스 8184" d="M2594.4,905.653a47.034,47.034,0,0,0-6.818-4.554c-.781-.427-1.479.766-.7,1.193a45.071,45.071,0,0,1,6.539,4.338C2594.109,907.18,2595.093,906.208,2594.4,905.653Z" transform="translate(-2293.069 -698.609)" fill="#4e6a9c"/>
      <path id="패스_8185" data-name="패스 8185" d="M2629.88,899.868c-2.844-2.285-5.852-4.675-9.583-5.186-4.212-.577-7.383,2.041-10.742,4.174-.749.475-.056,1.672.7,1.193,2.823-1.792,5.72-4.271,9.243-4.073,3.637.2,6.7,2.691,9.408,4.869C2629.59,901.4,2630.573,900.425,2629.88,899.868Z" transform="translate(-2308.339 -694.298)" fill="#4e6a9c"/>
      <path id="패스_8186" data-name="패스 8186" d="M2682.194,945.919A126.034,126.034,0,0,1,2683,975c-.078.886,1.3.88,1.381,0a127.52,127.52,0,0,0-.851-29.451C2683.4,944.675,2682.068,945.048,2682.194,945.919Z" transform="translate(-2357.429 -728.246)" fill="#4e6a9c"/>
      <path id="패스_8187" data-name="패스 8187" d="M2561.533,1224.013c-5.23-2.463-4.424-8.652-2.733-13.142.314-.833-1.021-1.193-1.333-.367-1.906,5.063-2.4,11.988,3.368,14.7C2561.635,1225.583,2562.338,1224.392,2561.533,1224.013Z" transform="translate(-2272.632 -906.555)" fill="#4e6a9c"/>
      <path id="패스_8188" data-name="패스 8188" d="M2521.231,1181.3l-6.142-2.363c-1.393-.536-5.861-1.478-6.176-2.939-.187-.869-1.52-.5-1.333.367.383,1.779,2.607,2.16,4.07,2.723l9.213,3.545C2521.695,1182.948,2522.054,1181.613,2521.231,1181.3Z" transform="translate(-2239.925 -883.314)" fill="#4e6a9c"/>
      <path id="패스_8189" data-name="패스 8189" d="M2619.2,1070.77a17.551,17.551,0,0,0-.248,6.038c.117.868,1.5.88,1.382,0a16.479,16.479,0,0,1,.2-5.671C2620.717,1070.27,2619.385,1069.9,2619.2,1070.77Z" transform="translate(-2314.775 -812.509)" fill="#4e6a9c"/>
      <path id="패스_8190" data-name="패스 8190" d="M2609.132,1159.417a34.527,34.527,0,0,1-6.281,15.547,32.952,32.952,0,0,0-3.444,5.645c-.922,2.128-.726,7.812-3.439,8.132-.872.1-.883,1.486,0,1.382a4.045,4.045,0,0,0,3.5-3.5,35.451,35.451,0,0,1,.954-4.863,23.01,23.01,0,0,1,2.734-4.821c3.765-5.479,6.5-10.837,7.359-17.519C2610.627,1158.538,2609.244,1158.546,2609.132,1159.417Z" transform="translate(-2298.97 -872.052)" fill="#4e6a9c"/>
      <path id="패스_8191" data-name="패스 8191" d="M2583.248,913.411a.691.691,0,0,0-.368,1.332,10.363,10.363,0,0,1,5.221,3.373c.573.681,1.546-.3.977-.977A11.622,11.622,0,0,0,2583.248,913.411Z" transform="translate(-2290.278 -706.936)" fill="#4e6a9c"/>
      <path id="패스_8192" data-name="패스 8192" d="M2150.323,507l-4.24-.907c-.867-.186-1.238,1.146-.367,1.332l4.24.907C2150.823,508.52,2151.194,507.188,2150.323,507Z" transform="translate(-1996.103 -432.859)" fill="#4e6a9c"/>
      <path id="패스_8193" data-name="패스 8193" d="M2157,515.246a3.932,3.932,0,0,1-1.621-1.165.7.7,0,0,0-.977,0,.706.706,0,0,0,0,.977,5.321,5.321,0,0,0,2.231,1.52.7.7,0,0,0,.85-.482A.705.705,0,0,0,2157,515.246Z" transform="translate(-2002.149 -438.11)" fill="#4e6a9c"/>
      <path id="패스_8194" data-name="패스 8194" d="M2238.107,1032.489c-3.55.529-6.492,2.528-9.82,3.722a36.542,36.542,0,0,1-10.991,1.854c-6.932.265-13.869-.369-20.741.86-.874.156-.5,1.488.367,1.332,7.306-1.306,14.71-.406,22.071-.9a36.2,36.2,0,0,0,9.262-1.675c3.47-1.179,6.546-3.317,10.219-3.865C2239.351,1033.69,2238.978,1032.359,2238.107,1032.489Z" transform="translate(-2030.311 -787.077)" fill="#4e6a9c"/>
      <path id="패스_8195" data-name="패스 8195" d="M2208.488,1077.472a168.357,168.357,0,0,0-16.213-9.163q-3.979-1.961-8.062-3.7a16.978,16.978,0,0,1-4.024-2.029c-1.415-1.127-2.9-4.356-.07-5.043.864-.21.5-1.542-.367-1.333a3.684,3.684,0,0,0-2.525,4.531c.7,3.177,4.537,4.3,7.1,5.417a166.783,166.783,0,0,1,23.46,12.515C2208.542,1079.145,2209.236,1077.95,2208.488,1077.472Z" transform="translate(-2017.572 -803.024)" fill="#4e6a9c"/>
      <path id="패스_8196" data-name="패스 8196" d="M2217.145,1072.805a89.107,89.107,0,0,1-18.33-3.6c-.852-.262-1.216,1.072-.367,1.332a90.88,90.88,0,0,0,18.7,3.645C2218.03,1074.266,2218.025,1072.884,2217.145,1072.805Z" transform="translate(-2031.595 -811.77)" fill="#4e6a9c"/>
      <path id="패스_8197" data-name="패스 8197" d="M2257.956,1095.672a47.724,47.724,0,0,1-14.439-2.563c-.843-.288-1.206,1.047-.367,1.332a48.959,48.959,0,0,0,14.806,2.613A.691.691,0,0,0,2257.956,1095.672Z" transform="translate(-2061.681 -827.847)" fill="#4e6a9c"/>
      <path id="패스_8198" data-name="패스 8198" d="M2266.966,1112.095a10.1,10.1,0,0,0-2.776-.491c-.889-.034-.887,1.348,0,1.382a8.717,8.717,0,0,1,2.409.442C2267.446,1113.706,2267.809,1112.372,2266.966,1112.095Z" transform="translate(-2075.71 -840.319)" fill="#4e6a9c"/>
      <path id="패스_8199" data-name="패스 8199" d="M2303.813,1080.318a37.187,37.187,0,0,0-6.837-.174c-.883.059-.889,1.441,0,1.382a37.155,37.155,0,0,1,6.837.174C2304.695,1081.8,2304.687,1080.421,2303.813,1080.318Z" transform="translate(-2097.774 -819.095)" fill="#4e6a9c"/>
      <path id="패스_8200" data-name="패스 8200" d="M2342.067,1060.339c-.732-.508-1.424.689-.7,1.193a1.654,1.654,0,0,1,.614,1.821.692.692,0,0,0,1.333.367A3.076,3.076,0,0,0,2342.067,1060.339Z" transform="translate(-2127.885 -805.741)" fill="#4e6a9c"/>
      <path id="패스_8201" data-name="패스 8201" d="M2339.7,1094.759a6.715,6.715,0,0,1-1.661,3.192c-.606.65.369,1.629.977.977a8.1,8.1,0,0,0,2.017-3.8C2341.224,1094.26,2339.893,1093.889,2339.7,1094.759Z" transform="translate(-2125.723 -828.651)" fill="#4e6a9c"/>
      <path id="패스_8202" data-name="패스 8202" d="M2264.771,1079.22H2261.2a.691.691,0,0,0,0,1.381h3.575A.691.691,0,0,0,2264.771,1079.22Z" transform="translate(-2073.695 -818.529)" fill="#4e6a9c"/>
      <path id="패스_8203" data-name="패스 8203" d="M2182.947,1067.539a9.516,9.516,0,0,1-3.879-.5c-.827-.326-1.186,1.01-.367,1.332a10.57,10.57,0,0,0,4.246.553C2183.832,1068.879,2183.837,1067.5,2182.947,1067.539Z" transform="translate(-2018.321 -810.295)" fill="#4e6a9c"/>
      <path id="패스_8204" data-name="패스 8204" d="M1921.513,917.4c-5.091.733-10.028,7.047-15.323,4.473-.8-.387-1.5.8-.7,1.193,6.059,2.945,10.731-3.519,16.388-4.333C1922.756,918.606,1922.383,917.275,1921.513,917.4Z" transform="translate(-1834.552 -709.634)" fill="#4e6a9c"/>
      <path id="패스_8205" data-name="패스 8205" d="M1997.227,896.871a86.4,86.4,0,0,1-21.333,1c-7.106-.562-13.989-2.34-21.007-3.476a151.024,151.024,0,0,0-19.918-2.134,19.706,19.706,0,0,0-15.063,5.8c-.624.635.352,1.612.977.977,5.055-5.141,11.328-5.741,18.178-5.107a205.778,205.778,0,0,1,20.875,2.784,128.8,128.8,0,0,0,18.25,2.687,88.352,88.352,0,0,0,19.407-1.2C1998.469,898.055,1998.1,896.723,1997.227,896.871Z" transform="translate(-1844.354 -692.715)" fill="#4e6a9c"/>
      <path id="패스_8206" data-name="패스 8206" d="M1901.881,899.39c-2.583.134-5.264.035-7.781.723a16.1,16.1,0,0,0-7.006,4.517.691.691,0,0,0,.977.977,14.447,14.447,0,0,1,6.928-4.293,40.436,40.436,0,0,1,6.882-.542C1902.765,900.726,1902.771,899.344,1901.881,899.39Z" transform="translate(-1822.272 -697.52)" fill="#4e6a9c"/>
      <path id="패스_8207" data-name="패스 8207" d="M1903.641,912.516c.187-.168-.088.041-.141.068-.12.062-.236.131-.354.2-.384.21-.772.414-1.159.619-.758.4-1.531.787-2.268,1.228-1.458.872-.878,3.386.449,4.18a.691.691,0,0,0,.7-1.193,1.624,1.624,0,0,1-.579-1.217,1.537,1.537,0,0,0-.04-.476c-.041.028-.124.052-.145.092.073-.133.118-.142.145-.092l.011-.007a8.632,8.632,0,0,1,1.583-.873,13.944,13.944,0,0,0,2.777-1.547C1905.281,912.9,1904.3,911.923,1903.641,912.516Z" transform="translate(-1830.33 -706.229)" fill="#4e6a9c"/>
      <path id="패스_8208" data-name="패스 8208" d="M1902.646,923.338c.021-.04.1-.064.145-.092C1902.764,923.2,1902.719,923.2,1902.646,923.338Z" transform="translate(-1832.874 -713.554)" fill="#4e6a9c"/>
      <path id="패스_8209" data-name="패스 8209" d="M1950.609,909.61a.7.7,0,0,0,0,.977.923.923,0,0,1-.021,1.134.7.7,0,0,0,.248.945.705.705,0,0,0,.945-.248,2.308,2.308,0,0,0-.2-2.808A.7.7,0,0,0,1950.609,909.61Z" transform="translate(-1865.016 -704.263)" fill="#4e6a9c"/>
      <path id="패스_8210" data-name="패스 8210" d="M1976.708,921.6a3.121,3.121,0,0,1-1.84,1.322.692.692,0,0,0,.367,1.333,4.571,4.571,0,0,0,2.666-1.957C1978.386,921.547,1977.19,920.854,1976.708,921.6Z" transform="translate(-1881.143 -712.25)" fill="#4e6a9c"/>
      <path id="패스_8211" data-name="패스 8211" d="M2157.406,961.232a49.541,49.541,0,0,1-.872,10.026c-.166.869,1.165,1.241,1.332.367a51.357,51.357,0,0,0,.921-10.393A.691.691,0,0,0,2157.406,961.232Z" transform="translate(-2003.706 -738.685)" fill="#4e6a9c"/>
      <path id="패스_8212" data-name="패스 8212" d="M2173.206,895.822l-10.915-4.514c-.821-.34-1.179,1-.367,1.332l10.915,4.514C2173.66,897.494,2174.018,896.158,2173.206,895.822Z" transform="translate(-2007.035 -692.045)" fill="#4e6a9c"/>
      <path id="패스_8213" data-name="패스 8213" d="M2328.135,938.2c-.549-.7-1.521.285-.977.977a55.032,55.032,0,0,1,8.639,15.778c.293.833,1.628.475,1.333-.367A57.078,57.078,0,0,0,2328.135,938.2Z" transform="translate(-2118.423 -723.477)" fill="#4e6a9c"/>
      <path id="패스_8214" data-name="패스 8214" d="M2280.5,882.375c-.821-.341-1.178,1-.367,1.333,17.158,7.127,27.778,23.486,36.444,39.105.432.778,1.626.081,1.193-.7C2308.9,906.128,2298.034,889.658,2280.5,882.375Z" transform="translate(-2086.578 -686.034)" fill="#4e6a9c"/>
      <path id="패스_8215" data-name="패스 8215" d="M2292.294,314.573c-.682-.56-1.665.412-.977.977l8.829,7.245c.682.56,1.665-.412.977-.977Z" transform="translate(-2094.254 -303.882)" fill="#4e6a9c"/>
      <path id="패스_8216" data-name="패스 8216" d="M2212.14,426.446c-.39-.8-1.582-.1-1.193.7l2.153,4.407c.39.8,1.582.1,1.193-.7Z" transform="translate(-2040.279 -379.037)" fill="#4e6a9c"/>
      <path id="패스_8217" data-name="패스 8217" d="M2300.786,631.309a12.311,12.311,0,0,1-7.744-2.59c-.694-.539-1.679.432-.977.977a13.841,13.841,0,0,0,8.721,3A.691.691,0,0,0,2300.786,631.309Z" transform="translate(-2094.753 -515.278)" fill="#4e6a9c"/>
      <path id="패스_8218" data-name="패스 8218" d="M2323.058,635.14a2.453,2.453,0,0,1-1.118,1.547c-.758.463-.065,1.658.7,1.193a3.858,3.858,0,0,0,1.753-2.373C2324.6,634.644,2323.271,634.275,2323.058,635.14Z" transform="translate(-2114.798 -519.374)" fill="#4e6a9c"/>
      <path id="패스_8219" data-name="패스 8219" d="M2261.58,637.793a3.326,3.326,0,0,1-1.28-2.429c-.048-.884-1.43-.89-1.382,0a4.67,4.67,0,0,0,1.685,3.406C2261.286,639.328,2262.269,638.356,2261.58,637.793Z" transform="translate(-2072.61 -519.408)" fill="#4e6a9c"/>
      <path id="패스_8220" data-name="패스 8220" d="M2274.654,655.607l-1.95.975c-.8.4-.1,1.59.7,1.193l1.95-.975C2276.146,656.4,2275.448,655.21,2274.654,655.607Z" transform="translate(-2081.651 -533.424)" fill="#4e6a9c"/>
      <path id="패스_8221" data-name="패스 8221" d="M2153.751,555.578c-4.781,1.673-9.653.1-13.4-3.1a16.638,16.638,0,0,1-1.744-1.655c-1.128-1.3-1.524-2.206-.7-3.626a23.158,23.158,0,0,0,1.7-3.7,39.094,39.094,0,0,0,1.648-19.111c-.141-.876-1.472-.5-1.332.367a39.029,39.029,0,0,1-.211,12.857,32.2,32.2,0,0,1-1.557,5.836c-.579,1.532-2.071,3.258-2.368,4.847-.273,1.459.924,2.547,1.847,3.51a21.364,21.364,0,0,0,4.816,3.832,14.056,14.056,0,0,0,11.676,1.274C2154.952,556.618,2154.593,555.283,2153.751,555.578Z" transform="translate(-1989.723 -444.842)" fill="#4e6a9c"/>
      <path id="패스_8222" data-name="패스 8222" d="M2172.15,592.25a18.968,18.968,0,0,1-8.031-6.189c-.531-.7-1.731-.011-1.193.7a20.688,20.688,0,0,0,8.857,6.824C2172.605,593.918,2172.964,592.581,2172.15,592.25Z" transform="translate(-2007.926 -486.484)" fill="#4e6a9c"/>
      <path id="패스_8223" data-name="패스 8223" d="M2159.892,577.688l-.65-.325a.708.708,0,0,0-.945.248.7.7,0,0,0,.248.945l.65.325a.708.708,0,0,0,.946-.248A.7.7,0,0,0,2159.892,577.688Z" transform="translate(-2004.842 -480.771)" fill="#4e6a9c"/>
    </g>
  </g>
</svg>
