<svg id="그룹_1482" data-name="그룹 1482" xmlns="http://www.w3.org/2000/svg" width="24" height="24" viewBox="0 0 24 24">
  <path id="패스_7936" data-name="패스 7936" d="M0,0H24V24H0Z" fill="none"/>
  <path id="패스_7937" data-name="패스 7937" d="M5,4H9l2,5L8.5,10.5a11,11,0,0,0,5,5L15,13l5,2v4a2,2,0,0,1-2,2A16,16,0,0,1,3,6,2,2,0,0,1,5,4" fill="none" stroke="#2c3e50" stroke-linecap="round" stroke-linejoin="round" stroke-width="2"/>
  <path id="패스_7938" data-name="패스 7938" d="M15,7a2,2,0,0,1,2,2" fill="none" stroke="#2c3e50" stroke-linecap="round" stroke-linejoin="round" stroke-width="2"/>
  <path id="패스_7939" data-name="패스 7939" d="M15,3a6,6,0,0,1,6,6" fill="none" stroke="#2c3e50" stroke-linecap="round" stroke-linejoin="round" stroke-width="2"/>
</svg>
