<?xml version="1.0" encoding="utf-8"?>
<!-- Generator: Adobe Illustrator 25.1.0, SVG Export Plug-In . SVG Version: 6.00 Build 0)  -->
<svg version="1.1" id="Layer_1" xmlns="http://www.w3.org/2000/svg" xmlns:xlink="http://www.w3.org/1999/xlink" x="0px" y="0px"
	 viewBox="0 0 48 24" style="enable-background:new 0 0 48 24;" xml:space="preserve">
<style type="text/css">
	.st0{fill:none;}
	.st1{fill:none;stroke:#3D3D3D;stroke-width:2;stroke-linecap:round;stroke-linejoin:round;}
	.st2{fill:none;stroke:#FFFFFF;stroke-width:2;stroke-linecap:round;stroke-linejoin:round;}
</style>
<path id="패스_8078" class="st0" d="M0,0h24v24H0V0z"/>
<circle id="타원_245" class="st1" cx="9" cy="7" r="4"/>
<path id="패스_8079" class="st1" d="M3,21v-2c0-2.21,1.79-4,4-4h4c2.21,0,4,1.79,4,4v2"/>
<path id="패스_8080" class="st1" d="M16,11l2,2l4-4"/>
<path id="패스_8078_1_" class="st0" d="M24,0h24v24H24V0z"/>
<circle id="타원_245_1_" class="st2" cx="33" cy="7" r="4"/>
<path id="패스_8079_1_" class="st2" d="M27,21v-2c0-2.21,1.79-4,4-4h4c2.21,0,4,1.79,4,4v2"/>
<path id="패스_8080_1_" class="st2" d="M40,11l2,2l4-4"/>
</svg>
