<?xml version="1.0" encoding="utf-8"?>
<!-- Generator: Adobe Illustrator 16.0.0, SVG Export Plug-In . SVG Version: 6.00 Build 0)  -->
<!DOCTYPE svg PUBLIC "-//W3C//DTD SVG 1.1//EN" "http://www.w3.org/Graphics/SVG/1.1/DTD/svg11.dtd">
<svg version="1.1" id="Layer_1" xmlns="http://www.w3.org/2000/svg" xmlns:xlink="http://www.w3.org/1999/xlink" x="0px" y="0px"
	 width="236px" height="40px" viewBox="0 0 236 40" enable-background="new 0 0 236 40" xml:space="preserve">
<g enable-background="new    ">
	<path fill="#FFFFFF" d="M57.227,15.236c-1.539,3.914-5.021,6.586-10.5,8.125l-1.376-2.808c5.668-1.512,8.395-4.184,8.854-7.558
		h-7.504v-2.861H58.09c0,0.782-0.054,1.538-0.162,2.268h4.454V8.461h3.563v14.307h-3.563v-2.376h-5.48V17.53h5.48v-2.294H57.227z
		 M66.107,28.139c0,3.104-3.32,5.048-8.368,5.048c-5.075,0-8.395-1.943-8.395-5.048s3.32-5.048,8.395-5.048
		C62.787,23.091,66.107,25.034,66.107,28.139z M62.598,28.139c0-1.512-1.809-2.294-4.859-2.294c-3.077,0-4.886,0.782-4.886,2.294
		s1.809,2.295,4.886,2.295C60.79,30.434,62.598,29.65,62.598,28.139z"/>
	<path fill="#FFFFFF" d="M82.255,11.025c0,7.612-2.564,13.82-11.391,18.085l-1.862-2.807c6.343-3.051,9.096-6.938,9.609-12.444
		h-8.287v-2.834H82.255z M89.651,8.434v24.86h-3.59V8.434H89.651z"/>
	<path fill="#FFFFFF" d="M99.86,22.659c-3.806,0-6.775-2.672-6.775-6.289c0-3.671,2.969-6.316,6.775-6.316
		c3.806,0,6.749,2.646,6.749,6.316C106.609,19.987,103.667,22.659,99.86,22.659z M99.86,19.582c1.863,0,3.266-1.215,3.266-3.212
		c0-2.052-1.403-3.239-3.266-3.239c-1.835,0-3.293,1.188-3.293,3.239C96.567,18.367,98.025,19.582,99.86,19.582z M114.005,30.056
		v2.834H96.837v-8.313h3.563v5.479H114.005z M113.384,26.33h-3.59V8.488h3.59V26.33z"/>
	<path fill="#FFFFFF" d="M131.664,22.659c-5.129,0.944-10.904,1.053-15.169,1.08l-0.324-2.835c1.377,0,2.916,0,4.535-0.026v-4.832
		h3.482v4.697c2.457-0.108,4.939-0.297,7.262-0.621L131.664,22.659z M126.32,18.719c0.404-2.322,0.513-4.131,0.539-5.615h-9.258
		V10.27h12.768v1.539c0,1.728,0,4.184-0.567,7.314L126.32,18.719z M123.351,30.056h13.794v2.834h-17.357v-7.478h3.563V30.056z
		 M139.33,16.019v2.942h-2.969v8.098h-3.563V8.434h3.563v7.585H139.33z"/>
	<path fill="#FFFFFF" d="M145.275,24.656c3.779-0.026,6.91-0.216,10.419-0.81l0.378,2.889c-4.049,0.701-7.693,0.863-12.201,0.863
		h-2.24v-10.23h8.071V13.4h-8.098v-2.834h11.741v9.609h-8.07V24.656z M160.985,8.434v24.941h-3.563V8.434H160.985z"/>
	<path fill="#FFFFFF" d="M173.731,13.994c0,4.616,1.971,9.151,6.182,10.959l-2.024,2.889c-2.861-1.296-4.777-3.752-5.885-6.802
		c-1.106,3.319-3.131,5.992-6.1,7.396l-2.133-2.942c4.346-1.862,6.396-6.667,6.396-11.499v-3.616h3.563V13.994z M184.691,8.434
		v24.941h-3.563V8.434H184.691z"/>
	<path fill="#FFFFFF" d="M210.395,27.41v2.888h-22.512V27.41H210.395z M208.1,23.146c-4.318-0.864-7.504-3.267-9.096-6.425
		c-1.594,3.158-4.752,5.588-9.07,6.425l-1.512-2.97c5.588-0.972,8.691-4.912,8.691-8.476V9.919h3.807V11.7
		c0,3.644,3.077,7.504,8.691,8.476L208.1,23.146z"/>
	<path fill="#FFFFFF" d="M223.168,21.796c-2.807,0.513-5.155,0.566-8.826,0.566h-1.701V9.945h9.34v2.808h-5.911v1.971h5.048v2.699
		h-5.048v2.132c2.618-0.026,4.562-0.161,6.802-0.566L223.168,21.796z M216.016,24.278h16.844v8.746h-16.844V24.278z M219.524,30.244
		h9.853v-3.186h-9.853V30.244z M224.6,17.288h-2.43v-2.861h2.43V8.839h3.319v14.279H224.6V17.288z M232.859,8.488v14.818h-3.375
		V8.488H232.859z"/>
</g>
<g id="outline-home-24px" transform="translate(20 20)">
	<g id="Bounding_Boxes">
		<path id="패스_2358" fill="none" d="M-20-18h36.885v36.885H-20V-18z"/>
	</g>
	<g id="Outline" transform="translate(3.074 4.611)">
		<path id="XMLID_1_" fill="#FFFFFF" d="M-4.631-13.866L3.053-6.95v12h-3.074v-9.218h-9.221v9.221h-3.074v-12l7.684-6.916
			 M-4.632-17.997L-20-4.168h4.611V8.127h9.221v-9.221h3.074v9.221h9.221V-4.168h4.611L-4.631-18L-4.632-17.997z"/>
	</g>
</g>
</svg>
