<svg xmlns="http://www.w3.org/2000/svg" xmlns:xlink="http://www.w3.org/1999/xlink" width="51.338" height="67.166" viewBox="0 0 51.338 67.166">
  <defs>
    <clipPath id="clip-path">
      <rect id="사각형_12570" data-name="사각형 12570" width="51.338" height="67.166" transform="translate(-2)" fill="none"/>
    </clipPath>
  </defs>
  <g id="그룹_35476" data-name="그룹 35476" transform="translate(2)">
    <path id="패스_31451" data-name="패스 31451" d="M1.307,129.426l-.94,1H.36v-1H0v2.282H.36v-1.094H.367l.973,1.094h.424L.688,130.52l1.044-1.094Z" transform="translate(0 -64.589)" fill="#02021a"/>
    <g id="그룹_35475" data-name="그룹 35475">
      <g id="그룹_35474" data-name="그룹 35474" clip-path="url(#clip-path)">
        <path id="패스_31452" data-name="패스 31452" d="M3.993,129.683a1.159,1.159,0,0,1,.856-.319,1.173,1.173,0,1,1,0,2.344,1.206,1.206,0,0,1-.856-2.025m.267,1.5a.77.77,0,0,0,.589.241.764.764,0,0,0,.587-.241,1.063,1.063,0,0,0,0-1.3.763.763,0,0,0-.587-.239.769.769,0,0,0-.589.239,1.071,1.071,0,0,0,0,1.3" transform="translate(-1.833 -64.557)" fill="#02021a"/>
        <path id="패스_31453" data-name="패스 31453" d="M9.529,130.74v.938H9.17v-2.266a4.21,4.21,0,0,1,.653-.048,1.246,1.246,0,0,1,.709.165.528.528,0,0,1,.238.459.651.651,0,0,1-.127.406.644.644,0,0,1-.347.232v.006a.75.75,0,0,1,.26.373l.279.672h-.372l-.272-.672a.422.422,0,0,0-.151-.217.7.7,0,0,0-.316-.049Zm0-.269h.2c.461,0,.692-.151.692-.45a.317.317,0,0,0-.148-.286.927.927,0,0,0-.478-.1,1.4,1.4,0,0,0-.262.022Z" transform="translate(-4.576 -64.557)" fill="#02021a"/>
        <path id="패스_31454" data-name="패스 31454" d="M13.69,129.708v.649H14.7v.269H13.69v.8h1.076v.281H13.329v-2.282h1.436v.281Z" transform="translate(-6.652 -64.589)" fill="#02021a"/>
        <path id="패스_31455" data-name="패스 31455" d="M16.552,131.708l.849-2.282h.391l.85,2.282h-.384l-.206-.607H17.13l-.206.607Zm.666-.876h.745l-.369-1.094h-.007Z" transform="translate(-8.26 -64.588)" fill="#02021a"/>
        <path id="패스_31456" data-name="패스 31456" d="M23.95,129.639a.488.488,0,0,0-.308.086.283.283,0,0,0-.107.232c0,.173.133.3.4.375a1.4,1.4,0,0,1,.6.289.592.592,0,0,1,.18.446.574.574,0,0,1-.208.475.929.929,0,0,1-.593.165,1.454,1.454,0,0,1-.734-.187l.1-.283a1.148,1.148,0,0,0,.636.19.5.5,0,0,0,.327-.095.324.324,0,0,0,.115-.266.358.358,0,0,0-.092-.257.794.794,0,0,0-.333-.164,1.4,1.4,0,0,1-.571-.28.539.539,0,0,1-.18-.409.525.525,0,0,1,.2-.431.881.881,0,0,1,.564-.162,1.76,1.76,0,0,1,.7.141l-.082.266a1.449,1.449,0,0,0-.619-.132" transform="translate(-11.569 -64.557)" fill="#02021a"/>
        <path id="패스_31457" data-name="패스 31457" d="M27.415,129.427V130.8c0,.434.179.65.539.65s.538-.216.538-.65v-1.376h.354v1.36a.985.985,0,0,1-.233.712,1.043,1.043,0,0,1-1.333,0,.992.992,0,0,1-.232-.712v-1.36Z" transform="translate(-13.498 -64.589)" fill="#02021a"/>
        <path id="패스_31458" data-name="패스 31458" d="M32.025,130.74v.938h-.359v-2.266a4.238,4.238,0,0,1,.653-.048,1.243,1.243,0,0,1,.709.165.527.527,0,0,1,.238.459.651.651,0,0,1-.127.406.637.637,0,0,1-.346.232v.006a.76.76,0,0,1,.262.373l.278.672H32.96l-.272-.672a.425.425,0,0,0-.152-.217.7.7,0,0,0-.316-.049Zm0-.269h.2c.463,0,.693-.151.693-.45a.319.319,0,0,0-.15-.286.92.92,0,0,0-.477-.1,1.418,1.418,0,0,0-.262.022Z" transform="translate(-15.803 -64.557)" fill="#02021a"/>
        <path id="패스_31459" data-name="패스 31459" d="M35.826,129.427h1.405v.281H36.185v.681h.98v.27h-.98v1.051h-.36Z" transform="translate(-17.878 -64.589)" fill="#02021a"/>
        <rect id="사각형_12567" data-name="사각형 12567" width="0.391" height="2.282" transform="translate(19.757 64.838)" fill="#02021a"/>
        <path id="패스_31460" data-name="패스 31460" d="M41.307,131.709v-2.282h.352l1.118,1.7h.006v-1.7h.353v2.282h-.353L41.665,130h-.007v1.7Z" transform="translate(-20.614 -64.589)" fill="#02021a"/>
        <path id="패스_31461" data-name="패스 31461" d="M47.507,130.595h-.75v-.269H47.85v1.21a1.834,1.834,0,0,1-.8.172,1.344,1.344,0,0,1-.937-.317,1.093,1.093,0,0,1-.352-.855,1.114,1.114,0,0,1,.338-.855,1.294,1.294,0,0,1,.919-.318,1.423,1.423,0,0,1,.741.191l-.114.25a1.174,1.174,0,0,0-.595-.166.916.916,0,0,0-.678.244.881.881,0,0,0-.245.653.854.854,0,0,0,.258.654.979.979,0,0,0,.7.243,1.124,1.124,0,0,0,.425-.079Z" transform="translate(-22.836 -64.557)" fill="#02021a"/>
        <path id="패스_31462" data-name="패스 31462" d="M52.967,131.742l.85-2.283h.391l.85,2.283h-.386l-.206-.608h-.92l-.206.608Zm.667-.877h.745l-.37-1.094H54Z" transform="translate(-26.433 -64.605)" fill="#02021a"/>
        <path id="패스_31463" data-name="패스 31463" d="M58.317,129.671a.48.48,0,0,0-.306.086.281.281,0,0,0-.109.233c0,.173.134.3.4.375a1.409,1.409,0,0,1,.606.289.59.59,0,0,1,.177.446.57.57,0,0,1-.207.475.924.924,0,0,1-.593.165,1.449,1.449,0,0,1-.734-.187l.1-.282a1.17,1.17,0,0,0,.636.189.5.5,0,0,0,.327-.094.324.324,0,0,0,.115-.266.348.348,0,0,0-.092-.256.782.782,0,0,0-.333-.165,1.39,1.39,0,0,1-.571-.279.537.537,0,0,1-.181-.409.524.524,0,0,1,.2-.431.876.876,0,0,1,.563-.163,1.779,1.779,0,0,1,.7.141l-.082.266a1.472,1.472,0,0,0-.621-.131" transform="translate(-28.72 -64.573)" fill="#02021a"/>
        <path id="패스_31464" data-name="패스 31464" d="M62.022,129.671a.486.486,0,0,0-.308.086.285.285,0,0,0-.108.233c0,.173.133.3.4.375a1.4,1.4,0,0,1,.606.289.587.587,0,0,1,.178.446.57.57,0,0,1-.207.475.923.923,0,0,1-.593.165,1.448,1.448,0,0,1-.734-.187l.1-.282a1.162,1.162,0,0,0,.636.189.5.5,0,0,0,.326-.094.323.323,0,0,0,.115-.266.352.352,0,0,0-.092-.256.784.784,0,0,0-.334-.165,1.374,1.374,0,0,1-.569-.279.533.533,0,0,1-.182-.409.527.527,0,0,1,.2-.431.884.884,0,0,1,.565-.163,1.774,1.774,0,0,1,.7.141l-.081.266a1.468,1.468,0,0,0-.621-.131" transform="translate(-30.569 -64.573)" fill="#02021a"/>
        <path id="패스_31465" data-name="패스 31465" d="M65.212,129.715a1.306,1.306,0,0,1,1.712,0,1.3,1.3,0,0,1,0,1.707,1.21,1.21,0,0,1-1.712-1.707m.269,1.5a.839.839,0,0,0,1.176,0,1.069,1.069,0,0,0,0-1.3.841.841,0,0,0-1.176,0,1.063,1.063,0,0,0,0,1.3" transform="translate(-32.384 -64.573)" fill="#02021a"/>
        <path id="패스_31466" data-name="패스 31466" d="M71.4,129.676a.856.856,0,0,0-.635.245.882.882,0,0,0-.24.647.87.87,0,0,0,.245.648.86.86,0,0,0,.63.243,1.152,1.152,0,0,0,.6-.173l.114.258a1.434,1.434,0,0,1-.751.194,1.217,1.217,0,0,1-.877-.316,1.276,1.276,0,0,1,0-1.71,1.215,1.215,0,0,1,.882-.318,1.426,1.426,0,0,1,.751.2l-.114.257a1.156,1.156,0,0,0-.6-.173" transform="translate(-35.013 -64.573)" fill="#02021a"/>
        <rect id="사각형_12568" data-name="사각형 12568" width="0.392" height="2.283" transform="translate(37.673 64.854)" fill="#02021a"/>
        <path id="패스_31467" data-name="패스 31467" d="M76.916,131.742l.85-2.283h.392l.85,2.283h-.386l-.205-.608h-.922l-.2.608Zm.665-.877h.745l-.368-1.094h-.007Z" transform="translate(-38.384 -64.605)" fill="#02021a"/>
        <path id="패스_31468" data-name="패스 31468" d="M80.98,129.459h1.763v.288h-.7v2h-.359v-2h-.7Z" transform="translate(-40.412 -64.605)" fill="#02021a"/>
        <rect id="사각형_12569" data-name="사각형 12569" width="0.392" height="2.283" transform="translate(42.88 64.854)" fill="#02021a"/>
        <path id="패스_31469" data-name="패스 31469" d="M87.662,129.715a1.295,1.295,0,1,1-.321.853,1.16,1.16,0,0,1,.321-.853m.268,1.5a.84.84,0,0,0,1.176,0,1.067,1.067,0,0,0,0-1.3.842.842,0,0,0-1.176,0,1.067,1.067,0,0,0,0,1.3" transform="translate(-43.586 -64.573)" fill="#02021a"/>
        <path id="패스_31470" data-name="패스 31470" d="M92.839,131.741v-2.283h.353l1.117,1.7h.007v-1.7h.353v2.283h-.353L93.2,130.036h-.007v1.706Z" transform="translate(-46.33 -64.605)" fill="#02021a"/>
        <path id="패스_31471" data-name="패스 31471" d="M43.66,104.11a4.377,4.377,0,0,1-2.237,3.36,8.04,8.04,0,0,1-4.352,1.128,9.008,9.008,0,0,1-5.339-1.565,5.574,5.574,0,0,1-2.525-4.718H32.5a3.447,3.447,0,0,0,1.539,2.807,4.993,4.993,0,0,0,3.006.921,3.859,3.859,0,0,0,2.116-.552,1.968,1.968,0,0,0,1.01-1.772,1.743,1.743,0,0,0-1.178-1.612,11.457,11.457,0,0,0-2.765-.69,24.417,24.417,0,0,1-3.151-.69q-3.414-1.105-3.27-4.12a3.986,3.986,0,0,1,2.067-3.338,7.981,7.981,0,0,1,4.353-1.127A8.167,8.167,0,0,1,41.015,93.5a4.581,4.581,0,0,1,2.14,4.119H39.861a2.778,2.778,0,0,0-1.13-2.3,3.906,3.906,0,0,0-2.405-.736,3.818,3.818,0,0,0-2.068.53,1.856,1.856,0,0,0-.962,1.565q-.024,1.037,1.274,1.612a15.963,15.963,0,0,0,3.018.794,19.133,19.133,0,0,1,3.33.886q2.765,1.15,2.765,3.567,0,.277-.024.576" transform="translate(-13.192 -45.982)" fill="#02021a"/>
        <path id="패스_31472" data-name="패스 31472" d="M72.218,103.768H65.485l-1.9,3.682H60.147l8.729-16.733,8.681,16.733H74.094Zm-5.434-2.555H70.92l-2.068-4.027Z" transform="translate(-28.632 -45.271)" fill="#02021a"/>
        <path id="패스_31473" data-name="패스 31473" d="M5.846,99.851l8.066-7.158H9.078l-5.8,5.227V92.693H.06v15.743H3.283v-6.681l7,6.681h4.7Z" transform="translate(1.353 -46.257)" fill="#02021a"/>
        <path id="패스_31474" data-name="패스 31474" d="M52.965,27.287s9.259-2.569,9.869-12.448c0,0,.7-10.378-11.622-13.948A19.356,19.356,0,0,0,44.571.006s14.9,2.356,14.205,15.627a17.062,17.062,0,0,1-5.811,11.653" transform="translate(-19.457 0)" fill="#80cfe2"/>
        <path id="패스_31475" data-name="패스 31475" d="M37.548,21.975s1.383-11.3-11.737-16.421c0,0-12.881-4.149-18.13,4.061,0,0,1.908-7.5,13.263-8.74A17.744,17.744,0,0,1,35.067,6.437s6.87,5.738,2.481,15.538" transform="translate(-1.047 -0.406)" fill="#0a50a1"/>
        <path id="패스_31476" data-name="패스 31476" d="M32.621,24.3S27.1,12.953,12.144,15.381c0,0-10.424,1.677-11.438,10.594A13.89,13.89,0,0,1,4.3,15.646s8.585-8.565,20.57-1.765A17.682,17.682,0,0,1,32.621,24.3" transform="translate(2.451 -5.617)" fill="#13007c"/>
        <path id="패스_31477" data-name="패스 31477" d="M24.891,23.417A18.306,18.306,0,0,0,7.366,31.54S4.138,37.191,5.8,42.487a13.085,13.085,0,0,1-3.6-9.8s1.384-8.829,13.006-10.329a23.653,23.653,0,0,1,9.686,1.059" transform="translate(1.7 -11.101)" fill="#0f298f"/>
        <path id="패스_31478" data-name="패스 31478" d="M26.971,26.721s-12.453,3.09-10.147,16.863c0,0,.83,8.21,10.792,10.948,0,0-11.53-2.207-15.311-8.74a14.186,14.186,0,0,1,4.612-14.655,19.519,19.519,0,0,1,10.054-4.415" transform="translate(-3.101 -13.335)" fill="#0f0063"/>
        <path id="패스_31479" data-name="패스 31479" d="M28.267,35.995s-2.859,9.8,5.35,14.92c0,0,6.918,4.678,18.54,2.648,0,0-7.487,6.618-16.326,4.062,0,0-6.641-2.207-8.671-7.858,0,0-3.044-7.416,1.107-13.772" transform="translate(-10.231 -17.963)" fill="#0480b7"/>
      </g>
    </g>
  </g>
</svg>
