<svg xmlns="http://www.w3.org/2000/svg" width="41" height="40.156" viewBox="0 0 41 40.156">
  <g id="그룹_990" data-name="그룹 990" transform="translate(-126.164 -705.515)">
    <path id="패스_1531" data-name="패스 1531" d="M164.556,705.515H128.772a2.611,2.611,0,0,0-2.608,2.608v27.134a2.611,2.611,0,0,0,2.608,2.608h7.665a.765.765,0,0,1,.568.41l1.983,5.946a1.921,1.921,0,0,0,1.8,1.449,2,2,0,0,0,1.639-.933l4.5-6.309a1.727,1.727,0,0,1,1.094-.563h16.536a2.611,2.611,0,0,0,2.608-2.608V708.123A2.611,2.611,0,0,0,164.556,705.515Zm.078,29.742a.082.082,0,0,1-.078.078H148.02a4.162,4.162,0,0,0-3.153,1.624l-3.839,5.379-1.621-4.863a3.25,3.25,0,0,0-2.969-2.14h-7.665a.082.082,0,0,1-.078-.078V708.123a.082.082,0,0,1,.078-.078h35.784a.082.082,0,0,1,.078.078Z" transform="translate(0)" fill="#444"/>
    <path id="사각형_516" data-name="사각형 516" d="M1.135,0h.949A1.133,1.133,0,0,1,3.217,1.133v.907A1.135,1.135,0,0,1,2.082,3.174H1.133A1.133,1.133,0,0,1,0,2.041V1.135A1.135,1.135,0,0,1,1.135,0Z" transform="translate(145.169 727.984)" fill="#444"/>
    <path id="패스_1532" data-name="패스 1532" d="M174.185,724.934c-3.366,0-5.3,2.069-5.3,5.677a.41.41,0,0,0,.411.409h1.793a.409.409,0,0,0,.409-.409c0-2.184.87-3.245,2.659-3.245a2.006,2.006,0,0,1,2.234,2.214,3.812,3.812,0,0,1-1.23,2.588,8.227,8.227,0,0,0-2.354,6.378.41.41,0,0,0,.41.41H174.9a.41.41,0,0,0,.409-.41,5.57,5.57,0,0,1,1.637-4.563,6.213,6.213,0,0,0,2.059-4.4A4.485,4.485,0,0,0,174.185,724.934Z" transform="translate(-27.284 -12.401)" fill="#444"/>
  </g>
</svg>
