<svg xmlns="http://www.w3.org/2000/svg" id="그룹_9549" data-name="그룹 9549" width="24" height="24" viewBox="0 0 24 24">
  <path id="패스_9776" data-name="패스 9776" d="M0,0H24V24H0Z" fill="none"/>
  <circle id="타원_469" data-name="타원 469" cx="3" cy="3" r="3" transform="translate(12 12)" fill="none" stroke="#fff" stroke-linecap="round" stroke-linejoin="round" stroke-width="1.5"/>
  <path id="패스_9777" data-name="패스 9777" d="M13,17.5V22l2-1.5L17,22V17.5" fill="none" stroke="#fff" stroke-linecap="round" stroke-linejoin="round" stroke-width="1.5"/>
  <path id="패스_9778" data-name="패스 9778" d="M10,19H5a2,2,0,0,1-2-2V7A2.006,2.006,0,0,1,5,5H19a2,2,0,0,1,2,2V17a2,2,0,0,1-1,1.73" fill="none" stroke="#fff" stroke-linecap="round" stroke-linejoin="round" stroke-width="1.5"/>
  <line id="선_1825" data-name="선 1825" x2="12" transform="translate(6 9)" fill="none" stroke="#fff" stroke-linecap="round" stroke-linejoin="round" stroke-width="1.5"/>
  <line id="선_1826" data-name="선 1826" x2="3" transform="translate(6 12)" fill="none" stroke="#fff" stroke-linecap="round" stroke-linejoin="round" stroke-width="1.5"/>
  <line id="선_1827" data-name="선 1827" x2="2" transform="translate(6 15)" fill="none" stroke="#fff" stroke-linecap="round" stroke-linejoin="round" stroke-width="1.5"/>
</svg>